<svg width="756" height="756" xmlns="http://www.w3.org/2000/svg" xmlns:xlink="http://www.w3.org/1999/xlink" overflow="hidden"><defs><clipPath id="clip0"><rect x="0" y="0" width="756" height="756"/></clipPath></defs><g clip-path="url(#clip0)"><rect x="0" y="0" width="756" height="756" fill="#FFFFFF"/><path d="M393 482.5 482.5 420 572 482.5 482.5 545Z" stroke="#000000" stroke-width="16.0035" stroke-linecap="round" stroke-linejoin="round" stroke-miterlimit="10" fill="none" fill-rule="evenodd"/><path d="M184 211 572.913 480.248" stroke="#000000" stroke-width="16.0035" stroke-linecap="round" stroke-miterlimit="8" fill="none" fill-rule="evenodd"/><path d="M427.662 495.916C408.804 494.072 410.379 486.591 404.735 482.376 413.561 476.858 417.193 473.792 428.478 468.274 414.698 477.911 419.457 490.521 427.662 495.916Z" fill-rule="evenodd"/><path d="M464.925 442.22C474.958 430.965 476.225 430.463 485.074 422.956 492.012 430.717 493.463 431.993 500.818 442.176 487.415 433.947 481.498 432.354 464.925 442.22Z" fill-rule="evenodd"/><path d="M3.18075 26.6029C-4.09551 9.10811 3.24307 6.96495 4.29349 0 13.3252 5.17518 17.742 6.92981 27.9343 14.2723 12.9336 6.67413 4.06397 16.8224 3.18075 26.6029Z" fill-rule="evenodd" transform="matrix(-0.472094 -0.881548 -0.881548 0.472094 563.668 486.161)"/><path d="M0 24.6378C5.96939 10.792 7.0134 9.91568 13.0418 0 22.0734 5.17518 23.8529 5.92812 34.0453 13.2706 18.7311 9.69077 12.6135 10.0457 0 24.6378Z" fill-rule="evenodd" transform="matrix(0.948918 -0.315524 -0.315524 -0.948918 472.699 545.228)"/></g></svg>