<svg width="756" height="756" xmlns="http://www.w3.org/2000/svg" xmlns:xlink="http://www.w3.org/1999/xlink" overflow="hidden"><defs><clipPath id="clip0"><rect x="0" y="0" width="756" height="756"/></clipPath></defs><g clip-path="url(#clip0)"><rect x="0" y="0" width="756" height="756" fill="#FFFFFF"/><path d="M747 376 747 633.953" stroke="#000000" stroke-width="16.0035" stroke-linecap="round" stroke-linejoin="round" stroke-miterlimit="10" fill="none" fill-rule="evenodd"/><path d="M370 374 370 631.953" stroke="#000000" stroke-width="16.0035" stroke-linecap="round" stroke-linejoin="round" stroke-miterlimit="10" fill="none" fill-rule="evenodd"/><path d="M7.99998 122 746.892 633.54" stroke="#000000" stroke-width="16.0035" stroke-linecap="round" stroke-miterlimit="8" fill="none" fill-rule="evenodd"/><path d="M378.045 419C369.289 403.667 372.015 388.333 369 373 379.607 383.138 396.423 389.304 400 403.624 383.438 392.179 377.78 401.652 378.045 419Z" fill-rule="evenodd"/><path d="M738.663 588C747.702 603 744.888 618 748 633 737.051 623.083 719.692 617.05 716 603.042 733.096 614.237 738.937 604.971 738.663 588Z" fill-rule="evenodd"/></g></svg>