<?xml version="1.0" encoding="utf-8"?>
<!-- Generator: Fusion 360, Shaper Origin Export Add-In, Version 1.6.10  -->
<svg xmlns="http://www.w3.org/2000/svg" xmlns:xlink="http://www.w3.org/1999/xlink" xmlns:shaper="http://www.shapertools.com/namespaces/shaper" shaper:fusionaddin="version:1.6.10" width="10cm" height="10cm" version="1.1" x="0cm" y="0cm" viewBox="0 0 10 10" enable-background="new 0 0 10 10" xml:space="preserve"><path d="M0.3075895,8 L10.3075895,8 10.3075895,-2 0.3075895,-2 0.3075895,8z" transform="matrix(1,0,0,-1,-0.3075895,8)" fill="rgb(0,0,0)" stroke-linecap="round" stroke-linejoin="round" /><path d="M7.5534605,1.4060334 L5.6171275,2.7618684 A0.175,0.175 55 0,1 5.3417516,2.6185168 L5.3417516,1.4741182 A0.25,0.25 180 0,1 5.5917516,1.2241182 L7.4961028,1.2241182 A0.1,0.1 270 0,1 7.5534605,1.4060334z" transform="matrix(1,0,0,-1,-0.3075895,8)" fill="rgb(0,0,0)" stroke-linecap="round" stroke-linejoin="round" /><path d="M5.5917516,1.0241182 A0.25,0.25 90 0,1 5.3417516,0.7741182 L5.3417516,0.0493467 A0.1088523,0.1088523 326.8615642 0,0 5.1417516,0.1088523 L5.1417516,0.2383796 5.1417516,3.0947301 0.7502319,6.1697053 A0.1,0.1 235 1,0 0.8649472,6.3335358 L9.6503718,0.1819152 A0.1,0.1 55 0,0 9.5356565,0.0180848 L8.0988919,1.0241182 5.5917516,1.0241182z" transform="matrix(1,0,0,-1,-0.3075895,8)" fill="rgb(255,255,255)" stroke="rgb(0,0,0)" stroke-width="0.0010cm" stroke-linecap="round" stroke-linejoin="round" /></svg>