<?xml version="1.0" encoding="utf-8"?>
<!-- Generator: Fusion 360, Shaper Origin Export Add-In, Version 1.6.10  -->
<svg xmlns="http://www.w3.org/2000/svg" xmlns:xlink="http://www.w3.org/1999/xlink" xmlns:shaper="http://www.shapertools.com/namespaces/shaper" shaper:fusionaddin="version:1.6.10" width="10cm" height="10cm" version="1.1" x="0cm" y="0cm" viewBox="0 0 10 10" enable-background="new 0 0 10 10" xml:space="preserve"><path d="M18.408937,7.9556379 L18.408937,-1.8473354 18.4162803,-1.8473354 18.4162803,-2.0443621 8.4162803,-2.0443621 8.4162803,7.9556379 18.408937,7.9556379z" transform="matrix(1,0,0,-1,-8.4162803,7.9556379)" fill="rgb(0,0,0)" stroke-linecap="round" stroke-linejoin="round" /><path d="M14.095255,0.1556379 A0.1,0.1 270 0,1 14.1526127,0.3375531 L12.1223047,1.75919 A0.15,0.15 55 0,1 11.8862682,1.6363172 L11.8862682,0.3556379 A0.2,0.2 180 0,1 12.0862682,0.1556379 L14.095255,0.1556379z" transform="matrix(1,0,0,-1,-8.4162803,7.9556379)" fill="rgb(0,0,0)" stroke-linecap="round" stroke-linejoin="round" /><path d="M12.8702068,2.9889305 A0.2,0.2 305 0,1 12.8702068,3.3165913 L12.1223047,3.840278 A0.15,0.15 55 0,1 11.8862682,3.7174052 L11.8862682,2.5881166 A0.15,0.15 180 0,1 12.1223047,2.4652438 L12.8702068,2.9889305z" transform="matrix(1,0,0,-1,-8.4162803,7.9556379)" fill="rgb(0,0,0)" stroke-linecap="round" stroke-linejoin="round" /><path d="M13.3358832,3.0708457 L12.0253129,2.1531745 A0.05,0.05 125 0,1 12.0253129,2.0712593 L14.7869316,0.1375531 A0.1,0.1 55 0,0 14.729574,-0.0443621 L11.7862682,-0.0443621 A0.1,0.1 270 0,0 11.6862682,0.0556379 L11.6862682,4.145594 8.8589226,6.1253227 A0.1,0.1 235 0,0 8.9736379,6.2891531 L13.3358832,3.2346761 A0.1,0.1 55 0,0 13.3358832,3.0708457z" transform="matrix(1,0,0,-1,-8.4162803,7.9556379)" fill="rgb(255,255,255)" stroke="rgb(0,0,0)" stroke-width="0.0010cm" stroke-linecap="round" stroke-linejoin="round" /></svg>