<?xml version="1.0" encoding="utf-8"?>
<!-- Generator: Fusion 360, Shaper Origin Export Add-In, Version 1.6.10  -->
<svg xmlns="http://www.w3.org/2000/svg" xmlns:xlink="http://www.w3.org/1999/xlink" xmlns:shaper="http://www.shapertools.com/namespaces/shaper" shaper:fusionaddin="version:1.6.10" width="10cm" height="10cm" version="1.1" x="0cm" y="0cm" viewBox="0 0 10 10" enable-background="new 0 0 10 10" xml:space="preserve"><path d="M12.8918064,8 L22.8918064,8 22.8918064,-2 12.8918064,-2 12.8918064,8z" transform="matrix(1,0,0,-1,-12.8918064,8)" fill="rgb(0,0,0)" stroke-linecap="round" stroke-linejoin="round" /><path d="M13.3344488,6.1697053 A0.1,0.1 235 0,0 13.449164,6.3335358 L19.515767,2.0856546 A0.1,0.1 55 0,0 19.4010517,1.9218242 L18.0431845,2.872613 A0.4,0.4 55 0,1 17.5843234,2.872613 L16.0110874,1.7710214 A0.175,0.175 125 0,1 16.0110874,1.4843182 L17.5843234,0.3827265 A0.4,0.4 235 0,1 18.0431845,0.3827265 L19.4010517,1.3335153 A0.1,0.1 125 1,0 19.515767,1.1696849 L17.8711116,0.0180848 A0.1,0.1 305 0,0 17.7563963,0.0180848 L15.5746578,1.5457546 A0.1,0.1 235 0,0 15.5746578,1.709585 L17.6394093,3.1553395 13.3344488,6.1697053z" transform="matrix(1,0,0,-1,-12.8918064,8)" fill="rgb(255,255,255)" stroke="rgb(0,0,0)" stroke-width="0.0010cm" stroke-linecap="round" stroke-linejoin="round" /></svg>