<?xml version="1.0" encoding="utf-8"?>
<!-- Generator: Fusion 360, Shaper Origin Export Add-In, Version 1.6.10  -->
<svg xmlns="http://www.w3.org/2000/svg" xmlns:xlink="http://www.w3.org/1999/xlink" xmlns:shaper="http://www.shapertools.com/namespaces/shaper" shaper:fusionaddin="version:1.6.10" width="10cm" height="10cm" version="1.1" x="0cm" y="0cm" viewBox="0 0 10 10" enable-background="new 0 0 10 10" xml:space="preserve"><path d="M28.408937,8.1526646 L28.408937,-1.8473354 18.4162803,-1.8473354 18.4162803,7.9556379 18.408937,7.9556379 18.408937,8.1526646 28.408937,8.1526646z" transform="matrix(1,0,0,-1,-18.408937,8.1526646)" fill="rgb(0,0,0)" stroke-linecap="round" stroke-linejoin="round" /><path d="M21.9557139,0.7329101 A0.15,0.15 180 0,1 22.1917503,0.6100373 L24.4251979,2.1739141 A0.15,0.15 305 0,1 24.4251979,2.4196597 L22.1917503,3.9835365 A0.15,0.15 55 0,1 21.9557139,3.8606637 L21.9557139,2.2835139 21.9557139,0.7329101z" transform="matrix(1,0,0,-1,-18.408937,8.1526646)" fill="rgb(0,0,0)" stroke-linecap="round" stroke-linejoin="round" /><path d="M21.9130715,0.1707494 L24.8323807,2.2148717 A0.1,0.1 305 0,1 24.8323807,2.3787021 L18.9662947,6.4861798 A0.1,0.1 55 0,1 18.8515794,6.3223494 L21.7557139,4.2888525 21.7557139,0.2526646 A0.1,0.1 180 0,1 21.9130715,0.1707494z" transform="matrix(1,0,0,-1,-18.408937,8.1526646)" fill="rgb(255,255,255)" stroke="rgb(0,0,0)" stroke-width="0.0010cm" stroke-linecap="round" stroke-linejoin="round" /></svg>