<?xml version="1.0" encoding="utf-8"?>
<!-- Generator: Fusion 360, Shaper Origin Export Add-In, Version 1.6.10  -->
<svg xmlns="http://www.w3.org/2000/svg" xmlns:xlink="http://www.w3.org/1999/xlink" xmlns:shaper="http://www.shapertools.com/namespaces/shaper" shaper:fusionaddin="version:1.6.10" width="10cm" height="10cm" version="1.1" x="0cm" y="0cm" viewBox="0 0 10 10" enable-background="new 0 0 10 10" xml:space="preserve"><path d="M23.7991795,8.1494769 L33.7991795,8.1494769 33.7991795,-1.8505231 23.7991795,-1.8505231 23.7991795,8.1494769z" transform="matrix(1,0,0,-1,-23.7991795,8.1494769)" fill="rgb(0,0,0)" stroke-linecap="round" stroke-linejoin="round" /><path d="M24.2418219,6.3191823 A0.1,0.1 235 1,0 24.3565372,6.4830127 L30.4070282,2.2464132 A0.1,0.1 55 1,0 30.2923129,2.0825828 L28.9401568,3.0293728 A0.4,0.4 55 0,1 28.4812956,3.0293728 L27.165699,2.1081821 A0.125,0.125 125.0000001 0,1 27.2373961,1.8807881 L29.4771135,1.8807881 A0.1,0.1 90 0,0 29.4771135,1.6807881 L27.2373961,1.6807881 A0.125,0.125 90 0,1 27.165699,1.4533941 L28.4812956,0.5322034 A0.4,0.4 235 0,1 28.9401568,0.5322034 L30.2923129,1.4789933 A0.1,0.1 125.0000001 1,0 30.4070282,1.3151629 L28.7680838,0.1675617 A0.1,0.1 305.0000001 0,0 28.6533686,0.1675617 L26.4664296,1.6988729 A0.1,0.1 235 0,0 26.4664296,1.8627033 L28.5363815,3.3120992 24.2418219,6.3191823z" transform="matrix(1,0,0,-1,-23.7991795,8.1494769)" fill="rgb(255,255,255)" stroke="rgb(0,0,0)" stroke-width="0.0010cm" stroke-linecap="round" stroke-linejoin="round" /></svg>