<?xml version="1.0" encoding="utf-8"?>
<!-- Generator: Fusion 360, Shaper Origin Export Add-In, Version 1.6.10  -->
<svg xmlns="http://www.w3.org/2000/svg" xmlns:xlink="http://www.w3.org/1999/xlink" xmlns:shaper="http://www.shapertools.com/namespaces/shaper" shaper:fusionaddin="version:1.6.10" width="10cm" height="10cm" version="1.1" x="0cm" y="0cm" viewBox="0 0 10 10" enable-background="new 0 0 10 10" xml:space="preserve"><path d="M29.4493968,8.1208394 L39.4493968,8.1208394 39.4493968,-1.8791606 29.4493968,-1.8791606 29.4493968,8.1208394z" transform="matrix(1,0,0,-1,-29.4493968,8.1208394)" fill="rgb(0,0,0)" stroke-linecap="round" stroke-linejoin="round" /><path d="M34.6530405,2.368952 A0.1,0.1 90 0,0 34.6530405,2.168952 L33.1734805,2.168952 A0.2,0.2 90 0,1 32.9734805,1.968952 L32.9734805,0.2208394 A0.1,0.1 0 0,0 32.7734805,0.2208394 L32.7734805,4.2729173 29.8920392,6.2905242 A0.1,0.1 234.9999988 0,0 30.0067545,6.4543546 L35.1173233,2.8758958 A0.1,0.1 55.0000012 1,0 35.002608,2.7120654 L34.7832167,2.8656848 33.209517,3.9676012 A0.15,0.15 55 0,1 32.9734805,3.8447284 L32.9734805,2.568952 A0.2,0.2 180 0,1 33.1734805,2.368952 L34.6530405,2.368952z" transform="matrix(1,0,0,-1,-29.4493968,8.1208394)" fill="rgb(255,255,255)" stroke="rgb(0,0,0)" stroke-width="0.0010cm" stroke-linecap="round" stroke-linejoin="round" /></svg>