<?xml version="1.0" encoding="utf-8"?>
<!-- Generator: Fusion 360, Shaper Origin Export Add-In, Version 1.6.10  -->
<svg xmlns="http://www.w3.org/2000/svg" xmlns:xlink="http://www.w3.org/1999/xlink" xmlns:shaper="http://www.shapertools.com/namespaces/shaper" shaper:fusionaddin="version:1.6.10" width="10cm" height="10cm" version="1.1" x="0cm" y="0cm" viewBox="0 0 10 10" enable-background="new 0 0 10 10" xml:space="preserve"><path d="M33.4396275,8.2261032 L43.4396275,8.2261032 43.4396275,-1.7738968 33.4396275,-1.7738968 33.4396275,8.2261032z" transform="matrix(1,0,0,-1,-33.4396275,8.2261032)" fill="rgb(0,0,0)" stroke-linecap="round" stroke-linejoin="round" /><path d="M39.8621372,2.4603707 A0.1,0.1 55 0,0 39.7474219,2.2965403 L38.5742757,3.1179862 A0.4,0.4 55 0,1 38.1154145,3.1179862 L36.5576652,2.0272383 A0.2,0.2 125 0,1 36.5576652,1.6995775 L38.1154145,0.6088297 A0.4,0.4 235 0,1 38.5742757,0.6088297 L39.8334815,1.4905351 A0.15,0.15 305 0,1 39.747445,1.7634079 L37.6900584,1.7634079 A0.1,0.1 270 1,0 37.6900584,1.9634079 L40.5403437,1.9634079 A0.1,0.1 90 0,0 40.5977014,1.7814927 L38.4022027,0.244188 A0.1,0.1 305 0,0 38.2874874,0.244188 L36.0919888,1.7814927 A0.1,0.1 235 0,0 36.0919888,1.9453231 L38.1705004,3.4007126 33.8450166,6.429449 A0.1062059,0.1062059 207.0228449 0,0 34.0005447,6.564702 L39.8621372,2.4603707z" transform="matrix(1,0,0,-1,-33.4396275,8.2261032)" fill="rgb(255,255,255)" stroke="rgb(0,0,0)" stroke-width="0.0010cm" stroke-linecap="round" stroke-linejoin="round" /></svg>