<?xml version="1.0" encoding="utf-8"?>
<!-- Generator: Fusion 360, Shaper Origin Export Add-In, Version 1.6.10  -->
<svg xmlns="http://www.w3.org/2000/svg" xmlns:xlink="http://www.w3.org/1999/xlink" xmlns:shaper="http://www.shapertools.com/namespaces/shaper" shaper:fusionaddin="version:1.6.10" width="10cm" height="10cm" version="1.1" x="0cm" y="0cm" viewBox="0 0 10 10" enable-background="new 0 0 10 10" xml:space="preserve"><path d="M33.4396275,8.2261032 L43.4396275,8.2261032 43.4396275,-1.7738968 33.4396275,-1.7738968 33.4396275,8.2261032z" transform="matrix(1,0,0,-1,-33.4396275,8.2261032)" fill="rgb(0,0,0)" stroke-linecap="round" stroke-linejoin="round" /><path d="M39.8585776,2.4552872 A0.1,0.1 55.0000012 1,0 39.7438623,2.2914568 L38.5717825,3.1121559 A0.4,0.4 55 0,1 38.1129213,3.1121559 L36.5593352,2.0243232 A0.2,0.2 125 0,1 36.5593352,1.6966624 L38.1129213,0.6088297 A0.4,0.4 235 0,1 38.5717825,0.6088297 L39.8268251,1.48762 A0.15,0.15 305 0,1 39.7407886,1.7604928 L37.6900894,1.7604928 A0.1,0.1 270 0,0 37.6900894,1.9604928 L40.5336873,1.9604928 A0.1,0.1 90 0,0 40.591045,1.7785776 L38.3997096,0.244188 A0.1,0.1 305 0,0 38.2849943,0.244188 L36.0936588,1.7785776 A0.1,0.1 235 0,0 36.0936588,1.942408 L38.1680072,3.3948824 33.8822698,6.395788 A0.1,0.1 235 0,0 33.9969851,6.5596184 L39.8585776,2.4552872z" transform="matrix(1,0,0,-1,-33.4396275,8.2261032)" fill="rgb(255,255,255)" stroke="rgb(0,0,0)" stroke-width="0.0010cm" stroke-linecap="round" stroke-linejoin="round" /></svg>