<?xml version="1.0" encoding="utf-8"?>
<!-- Generator: Fusion 360, Shaper Origin Export Add-In, Version 1.6.10  -->
<svg xmlns="http://www.w3.org/2000/svg" xmlns:xlink="http://www.w3.org/1999/xlink" xmlns:shaper="http://www.shapertools.com/namespaces/shaper" shaper:fusionaddin="version:1.6.10" width="10cm" height="10cm" version="1.1" x="0cm" y="0cm" viewBox="0 0 10 10" enable-background="new 0 0 10 10" xml:space="preserve"><path d="M38.6160181,8.3183 L48.6160181,8.3183 48.6160181,-1.6817 38.6160181,-1.6817 38.6160181,8.3183z" transform="matrix(1,0,0,-1,-38.6160181,8.3183)" fill="rgb(0,0,0)" stroke-linecap="round" stroke-linejoin="round" /><path d="M47.7970137,0.4183 A0.1,0.1 180 0,1 47.9970137,0.4183 L47.9970137,3.5034842 A0.1,0.1 0 0,1 47.7970137,3.5034842 L47.7970137,2.0608921 43.6125415,2.0608921 43.6125415,3.5613453 39.1731541,6.6519905 A0.1,0.1 55.1548542 1,1 39.0588821,6.4878506 L43.4125415,3.4568882 43.4125415,0.4183 A0.1,0.1 180 0,1 43.6125415,0.4183 L43.6125415,1.8608921 47.7970137,1.8608921 47.7970137,0.4183z" transform="matrix(1,0,0,-1,-38.6160181,8.3183)" fill="rgb(255,255,255)" stroke="rgb(0,0,0)" stroke-width="0.0010cm" stroke-linecap="round" stroke-linejoin="round" /></svg>