<?xml version="1.0" encoding="utf-8"?>
<!-- Generator: Fusion 360, Shaper Origin Export Add-In, Version 1.6.10  -->
<svg xmlns="http://www.w3.org/2000/svg" xmlns:xlink="http://www.w3.org/1999/xlink" xmlns:shaper="http://www.shapertools.com/namespaces/shaper" shaper:fusionaddin="version:1.6.10" width="10cm" height="10cm" version="1.1" x="0cm" y="0cm" viewBox="0 0 10 10" enable-background="new 0 0 10 10" xml:space="preserve"><path d="M47.0514954,8.2699328 L57.0514954,8.2699328 57.0514954,-1.7300672 47.0514954,-1.7300672 47.0514954,0.2699328 47.0514954,8.2699328z" transform="matrix(1,0,0,-1,-47.0514954,8.2699328)" fill="rgb(0,0,0)" stroke-linecap="round" stroke-linejoin="round" /><path d="M50.3369538,0.3699328 L50.3369538,4.2928863 A0.3,0.3 0 0,1 50.2090267,4.5386319 L47.4941378,6.4396176 A0.1,0.1 235 1,0 47.6088531,6.603448 L50.4943114,4.5830283 A0.1,0.1 55 0,0 50.5369538,4.5011131 L50.5369538,0.3699328 A0.1,0.1 0 0,0 50.3369538,0.3699328z" transform="matrix(1,0,0,-1,-47.0514954,8.2699328)" fill="rgb(255,255,255)" stroke="rgb(0,0,0)" stroke-width="0.0010cm" stroke-linecap="round" stroke-linejoin="round" /></svg>