<?xml version="1.0" encoding="utf-8"?>
<!-- Generator: Fusion 360, Shaper Origin Export Add-In, Version 1.6.10  -->
<svg xmlns="http://www.w3.org/2000/svg" xmlns:xlink="http://www.w3.org/1999/xlink" xmlns:shaper="http://www.shapertools.com/namespaces/shaper" shaper:fusionaddin="version:1.6.10" width="10cm" height="10cm" version="1.1" x="0cm" y="0cm" viewBox="0 0 10 10" enable-background="new 0 0 10 10" xml:space="preserve"><path d="M50.9083645,8.3320038 L60.9083645,8.3320038 60.9083645,-1.6679962 50.9083645,-1.6679962 50.9083645,0.3320038 50.9083645,8.3320038z" transform="matrix(1,0,0,-1,-50.9083645,8.3320038)" fill="rgb(0,0,0)" stroke-linecap="round" stroke-linejoin="round" /><path d="M54.3662084,0.3496034 A0.1,0.1 304.5122962 0,0 54.2521924,0.3500886 L52.7923044,1.3723132 A0.1,0.1 235 1,0 52.9070197,1.5361436 L54.0827096,0.7129167 A0.4,0.4 235 0,1 54.5387734,0.7109757 L55.5314679,1.3935494 A0.3,0.3 304.5122962 0,1 55.661493,1.6407508 L55.661493,3.3273042 A0.3,0.3 0 0,1 55.533566,3.5730498 L51.3510069,6.5017092 A0.1,0.1 235 0,0 51.4657221,6.6655396 L55.8188507,3.6174462 A0.1,0.1 55 0,0 55.861493,3.535531 L55.861493,1.4303554 A0.1,0.1 0 0,0 55.8181513,1.347955 L54.3662084,0.3496034z" transform="matrix(1,0,0,-1,-50.9083645,8.3320038)" fill="rgb(255,255,255)" stroke="rgb(0,0,0)" stroke-width="0.0010cm" stroke-linecap="round" stroke-linejoin="round" /></svg>