<?xml version="1.0" encoding="utf-8"?>
<!-- Generator: Fusion 360, Shaper Origin Export Add-In, Version 1.6.10  -->
<svg xmlns="http://www.w3.org/2000/svg" xmlns:xlink="http://www.w3.org/1999/xlink" xmlns:shaper="http://www.shapertools.com/namespaces/shaper" shaper:fusionaddin="version:1.6.10" width="10cm" height="10cm" version="1.1" x="0cm" y="0cm" viewBox="0 0 10 10" enable-background="new 0 0 10 10" xml:space="preserve"><path d="M1.8133253,0.7454048 L11.8133253,0.7454048 11.8133253,-9.2545952 1.8133253,-9.2545952 1.8133253,0.7454048z" transform="matrix(1,0,0,-1,-1.8133253,0.7454048)" fill="rgb(0,0,0)" stroke-linecap="round" stroke-linejoin="round" /><path d="M8.0942307,-2.9820947 L5.5266551,-4.7799304 A0.125,0.125 305 0,0 5.329958,-4.6775364 L5.329958,-2.9931863 2.370683,-0.92108 A0.1,0.1 55.0000049 0,1 2.2559677,-1.0849104 L5.129958,-3.0972998 5.129958,-7.1545952 A0.1,0.1 180 0,1 5.329958,-7.1545952 L5.329958,-5.5890935 A0.15,0.15 180 0,0 5.5659945,-5.4662207 L8.0942307,-7.2365104 A0.1,0.1 235.0000049 1,1 8.2089459,-7.07268 L5.6389262,-5.2731331 A0.2,0.2 235.0000049 0,0 5.6389262,-4.9454723 L8.208946,-3.1459251 A0.1,0.1 305 0,1 8.0942307,-2.9820947z" transform="matrix(1,0,0,-1,-1.8133253,0.7454048)" fill="rgb(255,255,255)" stroke="rgb(0,0,0)" stroke-width="0.0010cm" stroke-linecap="round" stroke-linejoin="round" /></svg>