<?xml version="1.0" encoding="utf-8"?>
<!-- Generator: Fusion 360, Shaper Origin Export Add-In, Version 1.6.10  -->
<svg xmlns="http://www.w3.org/2000/svg" xmlns:xlink="http://www.w3.org/1999/xlink" xmlns:shaper="http://www.shapertools.com/namespaces/shaper" shaper:fusionaddin="version:1.6.10" width="10cm" height="10cm" version="1.1" x="0cm" y="0cm" viewBox="0 0 10 10" enable-background="new 0 0 10 10" xml:space="preserve"><path d="M7.5818878,0.9189023 L17.5818878,0.9189023 17.5818878,-9.0810977 7.5818878,-9.0810977 7.5818878,0.9189023z" transform="matrix(1,0,0,-1,-7.5818878,0.9189023)" fill="rgb(0,0,0)" stroke-linecap="round" stroke-linejoin="round" /><path d="M10.7471654,-2.8178226 A0.275,0.275 55 0,0 10.8644319,-3.0430894 L10.8644319,-6.9810977 A0.1,0.1 180 0,1 10.9644319,-7.0810977 L16.867283,-7.0810977 A0.1,0.1 270 0,1 16.867283,-6.8810977 L11.3144319,-6.8810977 A0.25,0.25 270 0,0 11.0644319,-6.6310977 L11.0644319,-2.7958201 8.1392454,-0.7475825 A0.1,0.1 55 0,1 8.0245301,-0.9114129 L10.7471654,-2.8178226z" transform="matrix(1,0,0,-1,-7.5818878,0.9189023)" fill="rgb(255,255,255)" stroke="rgb(0,0,0)" stroke-width="0.0010cm" stroke-linecap="round" stroke-linejoin="round" /></svg>