<?xml version="1.0" encoding="utf-8"?>
<!-- Generator: Fusion 360, Shaper Origin Export Add-In, Version 1.6.10  -->
<svg xmlns="http://www.w3.org/2000/svg" xmlns:xlink="http://www.w3.org/1999/xlink" xmlns:shaper="http://www.shapertools.com/namespaces/shaper" shaper:fusionaddin="version:1.6.10" width="10cm" height="10cm" version="1.1" x="0cm" y="0cm" viewBox="0 0 10 10" enable-background="new 0 0 10 10" xml:space="preserve"><path d="M14.5612056,0.8003487 L24.5612056,0.8003487 24.5612056,-9.1996513 14.5612056,-9.1996513 14.5612056,0.8003487z" transform="matrix(1,0,0,-1,-14.5612056,0.8003487)" fill="rgb(0,0,0)" stroke-linecap="round" stroke-linejoin="round" /><path d="M23.7466009,-7.0996513 L23.7466009,-4.6560892 A0.225,0.225 0 0,1 23.3925462,-4.47178 L21.6559066,-5.6877881 19.919267,-4.47178 A0.225,0.225 55 0,1 19.5652123,-4.6560892 L19.5652123,-7.0996513 A0.1,0.1 0 0,0 19.3652123,-7.0996513 L19.3652123,-4.0838267 15.003848,-1.0299665 A0.1,0.1 235 0,0 15.1185632,-0.8661361 L21.6559066,-5.4436332 23.7892432,-3.9498548 A0.1,0.1 125 0,0 23.9466009,-4.03177 L23.9466009,-7.0996513 A0.1,0.1 0 0,0 23.7466009,-7.0996513z" transform="matrix(1,0,0,-1,-14.5612056,0.8003487)" fill="rgb(255,255,255)" stroke="rgb(0,0,0)" stroke-width="0.0010cm" stroke-linecap="round" stroke-linejoin="round" /></svg>