<?xml version="1.0" encoding="utf-8"?>
<!-- Generator: Fusion 360, Shaper Origin Export Add-In, Version 1.6.10  -->
<svg xmlns="http://www.w3.org/2000/svg" xmlns:xlink="http://www.w3.org/1999/xlink" xmlns:shaper="http://www.shapertools.com/namespaces/shaper" shaper:fusionaddin="version:1.6.10" width="10cm" height="10cm" version="1.1" x="0cm" y="0cm" viewBox="0 0 10 10" enable-background="new 0 0 10 10" xml:space="preserve"><path d="M22.4234587,0.9391445 L32.4234587,0.9391445 32.4234587,-9.0608555 22.4234587,-9.0608555 22.4234587,0.9391445z" transform="matrix(1,0,0,-1,-22.4234587,0.9391445)" fill="rgb(0,0,0)" stroke-linecap="round" stroke-linejoin="round" /><path d="M31.808854,-6.9608555 L31.808854,-3.8887178 A0.1,0.1 0 0,1 31.608854,-3.8887178 L31.608854,-6.1924626 A0.3,0.3 0 0,0 31.136781,-6.4382082 L22.9808163,-0.7273403 A0.1,0.1 55 0,1 22.866101,-0.8911707 L27.2213868,-3.9407745 27.2213868,-6.9608555 A0.1,0.1 180 0,1 27.4213868,-6.9608555 L27.4213868,-6.8685069 27.4213868,-4.6571107 A0.3,0.3 180 0,0 27.8934597,-4.4113651 L31.6514963,-7.0427707 A0.1,0.1 235 0,1 31.808854,-6.9608555z" transform="matrix(1,0,0,-1,-22.4234587,0.9391445)" fill="rgb(255,255,255)" stroke="rgb(0,0,0)" stroke-width="0.0010cm" stroke-linecap="round" stroke-linejoin="round" /></svg>