<?xml version="1.0" encoding="utf-8"?>
<!-- Generator: Fusion 360, Shaper Origin Export Add-In, Version 1.6.10  -->
<svg xmlns="http://www.w3.org/2000/svg" xmlns:xlink="http://www.w3.org/1999/xlink" xmlns:shaper="http://www.shapertools.com/namespaces/shaper" shaper:fusionaddin="version:1.6.10" width="10cm" height="10cm" version="1.1" x="0cm" y="0cm" viewBox="0 0 10 10" enable-background="new 0 0 10 10" xml:space="preserve"><path d="M31.0243025,0.9135541 L41.0243025,0.9135541 41.0243025,-9.0864459 31.0243025,-9.0864459 31.0243025,0.9135541z" transform="matrix(1,0,0,-1,-31.0243025,0.9135541)" fill="rgb(0,0,0)" stroke-linecap="round" stroke-linejoin="round" /><path d="M37.688266,-5.6006378 A0.2,0.2 305 0,1 37.688266,-5.272977 L36.1129023,-4.1698955 A0.4,0.4 55 0,1 35.6540412,-4.1698955 L34.0786774,-5.272977 A0.2,0.2 125 0,1 34.0786774,-5.6006378 L35.6540412,-6.7037194 A0.4,0.4 235 0,1 36.1129023,-6.7037194 L37.688266,-5.6006378z" transform="matrix(1,0,0,-1,-31.0243025,0.9135541)" fill="rgb(0,0,0)" stroke-linecap="round" stroke-linejoin="round" /><path d="M35.9408294,-7.0683611 A0.1,0.1 305 0,0 35.8261141,-7.0683611 L33.613001,-5.5187226 A0.1,0.1 235 0,0 33.613001,-5.3548922 L35.709127,-3.887169 31.4669449,-0.9167611 A0.1,0.1 235 0,0 31.5816602,-0.7529307 L38.1539424,-5.3548922 A0.1,0.1 55 0,0 38.1539424,-5.5187226 L35.9408294,-7.0683611z" transform="matrix(1,0,0,-1,-31.0243025,0.9135541)" fill="rgb(255,255,255)" stroke="rgb(0,0,0)" stroke-width="0.0010cm" stroke-linecap="round" stroke-linejoin="round" /></svg>