<?xml version="1.0" encoding="utf-8"?>
<!-- Generator: Fusion 360, Shaper Origin Export Add-In, Version 1.6.10  -->
<svg xmlns="http://www.w3.org/2000/svg" xmlns:xlink="http://www.w3.org/1999/xlink" xmlns:shaper="http://www.shapertools.com/namespaces/shaper" shaper:fusionaddin="version:1.6.10" width="10cm" height="10cm" version="1.1" x="0cm" y="0cm" viewBox="0 0 10 10" enable-background="new 0 0 10 10" xml:space="preserve"><path d="M37.4757815,0.7877717 L47.4757815,0.7877717 47.4757815,-9.2122283 37.4757815,-9.2122283 37.4757815,0.7877717z" transform="matrix(1,0,0,-1,-37.4757815,0.7877717)" fill="rgb(0,0,0)" stroke-linecap="round" stroke-linejoin="round" /><path d="M41.2436477,-3.3708903 A0.175,0.175 55 0,1 40.9682718,-3.5142419 L40.9682718,-5.5547329 A0.175,0.175 180 0,1 41.2436477,-5.6980846 L42.7007093,-4.677839 A0.175,0.175 305 0,1 42.7007093,-4.3911358 L41.2436477,-3.3708903z" transform="matrix(1,0,0,-1,-37.4757815,0.7877717)" fill="rgb(0,0,0)" stroke-linecap="round" stroke-linejoin="round" /><path d="M40.9682718,-6.1350597 L40.9682718,-7.1122283 A0.1,0.1 0 0,0 40.7682718,-7.1122283 L40.7682718,-3.0380285 37.9184239,-1.0425435 A0.1,0.1 235 1,0 38.0331392,-0.8787131 L43.1371389,-4.4525722 A0.1,0.1 55 0,0 43.1371389,-4.6164026 L40.9682718,-6.1350597z" transform="matrix(1,0,0,-1,-37.4757815,0.7877717)" fill="rgb(255,255,255)" stroke="rgb(0,0,0)" stroke-width="0.0010cm" stroke-linecap="round" stroke-linejoin="round" /></svg>