<?xml version="1.0" encoding="utf-8"?>
<!-- Generator: Fusion 360, Shaper Origin Export Add-In, Version 1.6.10  -->
<svg xmlns="http://www.w3.org/2000/svg" xmlns:xlink="http://www.w3.org/1999/xlink" xmlns:shaper="http://www.shapertools.com/namespaces/shaper" shaper:fusionaddin="version:1.6.10" width="10cm" height="10cm" version="1.1" x="0cm" y="0cm" viewBox="0 0 10 10" enable-background="new 0 0 10 10" xml:space="preserve"><path d="M42.3023853,0.9895778 L52.3023853,0.9895778 52.3023853,-9.0104222 42.3023853,-9.0104222 42.3023853,0.9895778z" transform="matrix(1,0,0,-1,-42.3023853,0.9895778)" fill="rgb(0,0,0)" stroke-linecap="round" stroke-linejoin="round" /><path d="M48.991075,-5.5419276 A0.2,0.2 305 0,1 48.991075,-5.2142668 L47.4404375,-4.1284987 A0.4,0.4 55 0,1 46.9815764,-4.1284987 L45.4309389,-5.2142668 A0.2,0.2 125 0,1 45.4309389,-5.5419276 L47.211007,-6.7883447 48.991075,-5.5419276z" transform="matrix(1,0,0,-1,-42.3023853,0.9895778)" fill="rgb(0,0,0)" stroke-linecap="round" stroke-linejoin="round" /><path d="M49.4567514,-5.296182 A0.1,0.1 55 0,0 49.4567514,-5.4600124 L48.7721823,-5.9393529 A0.175,0.175 125 0,1 48.7721823,-6.2260561 L49.6325712,-6.8285069 A0.1,0.1 55 1,0 49.517856,-6.9923374 L48.6225409,-6.365431 A0.4,0.4 55 0,1 48.1636797,-6.365431 L47.2683646,-6.9923374 A0.1,0.1 305 0,0 47.1536493,-6.9923374 L44.9652625,-5.4600124 A0.1,0.1 235 0,0 44.9652625,-5.296182 L47.0366623,-3.8457723 42.7450277,-0.8407374 A0.1,0.1 235 0,0 42.859743,-0.6769069 L49.4567514,-5.296182z" transform="matrix(1,0,0,-1,-42.3023853,0.9895778)" fill="rgb(255,255,255)" stroke="rgb(0,0,0)" stroke-width="0.0010cm" stroke-linecap="round" stroke-linejoin="round" /></svg>