<?xml version="1.0" encoding="utf-8"?>
<!-- Generator: Fusion 360, Shaper Origin Export Add-In, Version 1.6.10  -->
<svg xmlns="http://www.w3.org/2000/svg" xmlns:xlink="http://www.w3.org/1999/xlink" xmlns:shaper="http://www.shapertools.com/namespaces/shaper" shaper:fusionaddin="version:1.6.10" width="10cm" height="10cm" version="1.1" x="0cm" y="0cm" viewBox="0 0 10 10" enable-background="new 0 0 10 10" xml:space="preserve"><path d="M49.4407857,0.7921462 L59.4407857,0.7921462 59.4407857,-9.2078538 49.4407857,-9.2078538 49.4407857,0.7921462z" transform="matrix(1,0,0,-1,-49.4407857,0.7921462)" fill="rgb(0,0,0)" stroke-linecap="round" stroke-linejoin="round" /><path d="M54.6336828,-4.6510363 A0.175,0.175 305 0,1 54.6336828,-4.3643331 L53.1753767,-3.3432162 A0.175,0.175 55 0,1 52.9000008,-3.4865678 L52.9000008,-5.5288017 A0.175,0.175 180 0,1 53.1753767,-5.6721533 L54.6336828,-4.6510363z" transform="matrix(1,0,0,-1,-49.4407857,0.7921462)" fill="rgb(0,0,0)" stroke-linecap="round" stroke-linejoin="round" /><path d="M53.9353382,-5.3841774 A0.2,0.2 125 0,1 53.9353382,-5.7118382 L55.8120679,-7.0259385 A0.1,0.1 54.9999988 0,0 55.6973526,-7.189769 L55.5487134,-7.0856906 53.75645,-5.8307343 A0.4,0.4 55 0,1 53.2975888,-5.8307343 L52.9000008,-6.1091285 52.9000008,-7.1078538 A0.1,0.1 0 0,0 52.7000008,-7.1078538 L52.7000008,-3.0103544 49.8834281,-1.038169 A0.1,0.1 235 0,0 49.9981434,-0.8743385 L55.0701124,-4.4257695 A0.1,0.1 55 0,0 55.0701124,-4.5895999 L53.9353382,-5.3841774z" transform="matrix(1,0,0,-1,-49.4407857,0.7921462)" fill="rgb(255,255,255)" stroke="rgb(0,0,0)" stroke-width="0.0010cm" stroke-linecap="round" stroke-linejoin="round" /></svg>