<?xml version="1.0" encoding="utf-8"?>
<!-- Generator: Fusion 360, Shaper Origin Export Add-In, Version 1.6.10  -->
<svg xmlns="http://www.w3.org/2000/svg" xmlns:xlink="http://www.w3.org/1999/xlink" xmlns:shaper="http://www.shapertools.com/namespaces/shaper" shaper:fusionaddin="version:1.6.10" width="10cm" height="10cm" version="1.1" x="0cm" y="0cm" viewBox="0 0 10 10" enable-background="new 0 0 10 10" xml:space="preserve"><path d="M-0.0199736,-6.2509688 L9.9800264,-6.2509688 9.9800264,-16.2509688 -0.0199736,-16.2509688 -0.0199736,-6.2509688z" transform="matrix(1,0,0,-1,0.0199736,-6.2509688)" fill="rgb(0,0,0)" stroke-linecap="round" stroke-linejoin="round" /><path d="M7.7504764,-11.1765032 L6.5796769,-10.3567005 A0.4,0.4 55 0,1 6.1208158,-10.3567005 L5.2756301,-10.9485059 A0.175,0.175 125 0,1 5.2756301,-11.2352091 L7.8651917,-13.0484397 A0.1,0.1 55 0,0 7.8651917,-13.2122701 L6.407604,-14.232884 A0.1,0.1 305 0,0 6.2928887,-14.232884 L4.835301,-13.2122701 A0.1,0.1 235 1,0 4.9500163,-13.0484397 L6.1208158,-13.8682423 A0.4,0.4 235 0,1 6.5796769,-13.8682423 L7.428762,-13.2737065 A0.175,0.175 305 0,1 7.428762,-12.9870033 L0.4226688,-8.081284 A0.1,0.1 234.9999988 0,0 0.5373841,-7.9174536 L4.8965581,-10.9697801 6.2928887,-9.9920589 A0.1,0.1 125 0,0 6.407604,-9.9920589 L7.8651917,-11.0126728 A0.1,0.1 55 0,0 7.7504764,-11.1765032z" transform="matrix(1,0,0,-1,0.0199736,-6.2509688)" fill="rgb(255,255,255)" stroke="rgb(0,0,0)" stroke-width="0.0010cm" stroke-linecap="round" stroke-linejoin="round" /></svg>