<?xml version="1.0" encoding="utf-8"?>
<!-- Generator: Fusion 360, Shaper Origin Export Add-In, Version 1.6.10  -->
<svg xmlns="http://www.w3.org/2000/svg" xmlns:xlink="http://www.w3.org/1999/xlink" xmlns:shaper="http://www.shapertools.com/namespaces/shaper" shaper:fusionaddin="version:1.6.10" width="10cm" height="10cm" version="1.1" x="0cm" y="0cm" viewBox="0 0 10 10" enable-background="new 0 0 10 10" xml:space="preserve"><path d="M7.667063,-6.276453 L17.667063,-6.276453 17.667063,-16.276453 7.667063,-16.276453 7.667063,-6.276453z" transform="matrix(1,0,0,-1,-7.667063,-6.276453)" fill="rgb(0,0,0)" stroke-linecap="round" stroke-linejoin="round" /><path d="M12.6012146,-14.176453 L12.6012146,-11.4055285 A0.225,0.225 180 0,0 12.8262146,-11.1805285 L15,-11.1805285 A0.1,0.1 270 0,1 15,-10.9805285 L12.5625497,-10.9805285 8.2244206,-7.9429378 A0.1,0.1 55 0,1 8.1097053,-8.1067682 L12.2519663,-11.0072106 A0.35,0.35 55 0,0 12.4012146,-11.2939138 L12.4012146,-14.176453 A0.1,0.1 180 0,1 12.6012146,-14.176453z" transform="matrix(1,0,0,-1,-7.667063,-6.276453)" fill="rgb(255,255,255)" stroke="rgb(0,0,0)" stroke-width="0.0010cm" stroke-linecap="round" stroke-linejoin="round" /></svg>