<?xml version="1.0" encoding="utf-8"?>
<!-- Generator: Fusion 360, Shaper Origin Export Add-In, Version 1.6.10  -->
<svg xmlns="http://www.w3.org/2000/svg" xmlns:xlink="http://www.w3.org/1999/xlink" xmlns:shaper="http://www.shapertools.com/namespaces/shaper" shaper:fusionaddin="version:1.6.10" width="10cm" height="10cm" version="1.1" x="0cm" y="0cm" viewBox="0 0 10 10" enable-background="new 0 0 10 10" xml:space="preserve"><path d="M25.4415058,-6.3421577 L25.4415058,-16.2400889 25.9588974,-16.2400889 25.9588974,-16.3421577 15.9588974,-16.3421577 15.9588974,-6.3421577 25.4415058,-6.3421577z" transform="matrix(1,0,0,-1,-15.9588974,-6.3421577)" fill="rgb(0,0,0)" stroke-linecap="round" stroke-linejoin="round" /><path d="M25.9588974,-7.8900129 A0.1,0.1 79.9844332 0,1 25.8841482,-8.0704041 L25.9588974,-8.1227441 25.9588974,-16.2400889 25.4415058,-16.2400889 25.4415058,-6.3421577 25.9588974,-6.3421577 25.9588974,-7.8900129z" transform="matrix(1,0,0,-1,-15.9588974,-6.3421577)" fill="rgb(0,0,0)" stroke-linecap="round" stroke-linejoin="round" /><path d="M19.4223181,-14.3240729 A0.1,0.1 305 0,0 19.3076029,-14.3240729 L17.8470567,-13.3013875 A0.1,0.1 235 0,0 17.8044143,-13.2194723 L17.8044143,-11.1585094 A0.1,0.1 180 0,0 18.0044143,-11.1585094 L18.0044143,-12.9852171 A0.35,0.35 180 0,1 18.1536626,-13.2719203 L19.1355299,-13.9594312 A0.4,0.4 235 0,1 19.5943911,-13.9594312 L20.5762584,-13.2719203 A0.35,0.35 305 0,1 20.7255067,-12.9852171 L20.7255067,-11.3823456 A0.35,0.35 0 0,1 20.5762584,-11.0956424 L16.4015397,-8.1724729 A0.1,0.1 235 0,0 16.516255,-8.0086425 L20.9255067,-11.0960337 20.9255067,-13.2194723 A0.1,0.1 0 0,0 20.8828643,-13.3013875 L19.4223181,-14.3240729z" transform="matrix(1,0,0,-1,-15.9588974,-6.3421577)" fill="rgb(255,255,255)" stroke="rgb(0,0,0)" stroke-width="0.0010cm" stroke-linecap="round" stroke-linejoin="round" /></svg>