<?xml version="1.0" encoding="utf-8"?>
<!-- Generator: Fusion 360, Shaper Origin Export Add-In, Version 1.6.10  -->
<svg xmlns="http://www.w3.org/2000/svg" xmlns:xlink="http://www.w3.org/1999/xlink" xmlns:shaper="http://www.shapertools.com/namespaces/shaper" shaper:fusionaddin="version:1.6.10" width="10cm" height="10cm" version="1.1" x="0cm" y="0cm" viewBox="0 0 10 10" enable-background="new 0 0 10 10" xml:space="preserve"><path d="M21.6229499,-6.3308817 L31.6229499,-6.3308817 31.6229499,-16.3308817 21.6229499,-16.3308817 21.6229499,-6.3308817z" transform="matrix(1,0,0,-1,-21.6229499,-6.3308817)" fill="rgb(0,0,0)" stroke-linecap="round" stroke-linejoin="round" /><path d="M22.1803075,-12.0984332 L24.8219844,-13.9481552 A0.4,0.4 235 0,1 25.2808455,-13.9481552 L27.6008081,-12.3237 A0.175,0.175 305 0,1 27.6008081,-12.0369968 L22.0655922,-8.1611969 A0.1,0.1 235 0,0 22.1803075,-7.9973665 L28.0372377,-12.0984332 A0.1,0.1 55 0,0 28.0372377,-12.2622636 L25.1087726,-14.3127969 A0.1,0.1 305 0,0 24.9940573,-14.3127969 L22.0655922,-12.2622636 A0.1,0.1 235 0,0 22.1803075,-12.0984332z" transform="matrix(1,0,0,-1,-21.6229499,-6.3308817)" fill="rgb(255,255,255)" stroke="rgb(0,0,0)" stroke-width="0.0010cm" stroke-linecap="round" stroke-linejoin="round" /></svg>