<?xml version="1.0" encoding="utf-8"?>
<!-- Generator: Fusion 360, Shaper Origin Export Add-In, Version 1.6.10  -->
<svg xmlns="http://www.w3.org/2000/svg" xmlns:xlink="http://www.w3.org/1999/xlink" xmlns:shaper="http://www.shapertools.com/namespaces/shaper" shaper:fusionaddin="version:1.6.10" width="10cm" height="10cm" version="1.1" x="0cm" y="0cm" viewBox="0 0 10 10" enable-background="new 0 0 10 10" xml:space="preserve"><path d="M25.9588974,-6.3421577 L25.9588974,-7.8900129 A0.1,0.1 79.9844332 0,0 25.9988635,-7.9065737 L30.4645004,-11.0334464 30.4645004,-13.4197206 A0.275,0.275 180 0,1 30.8972339,-13.6449875 L32.4883431,-12.5308808 A0.1,0.1 125 0,0 32.6030584,-12.5308808 L34.1941676,-13.6449875 A0.275,0.275 235 0,1 34.6269011,-13.4197206 L34.6269011,-11.0784099 A0.1,0.1 180 0,0 34.8269011,-11.0784099 L34.8269011,-14.1400889 A0.1,0.1 0 0,0 34.6695434,-14.2220041 L32.7751313,-12.8955225 A0.4,0.4 55 0,1 32.3162702,-12.8955225 L30.421858,-14.2220041 A0.1,0.1 305 0,0 30.2645004,-14.1400889 L30.2645004,-11.3457866 A0.4,0.4 0 0,1 30.093931,-11.0181258 L25.9588974,-8.1227441 25.9588974,-16.2400889 35.4415058,-16.2400889 35.4415058,-6.2400889 25.4415058,-6.2400889 25.4415058,-6.3421577 25.9588974,-6.3421577z" transform="matrix(1,0,0,-1,-25.4415058,-6.2400889)" fill="rgb(0,0,0)" stroke-linecap="round" stroke-linejoin="round" /><path d="M25.9588974,-7.8900129 A0.1,0.1 79.9844332 0,1 25.8841482,-8.0704041 L25.9588974,-8.1227441 25.9588974,-16.2400889 25.4415058,-16.2400889 25.4415058,-6.3421577 25.9588974,-6.3421577 25.9588974,-7.8900129z" transform="matrix(1,0,0,-1,-25.4415058,-6.2400889)" fill="rgb(0,0,0)" stroke-linecap="round" stroke-linejoin="round" /></svg>