<?xml version="1.0" encoding="utf-8"?>
<!-- Generator: Fusion 360, Shaper Origin Export Add-In, Version 1.6.10  -->
<svg xmlns="http://www.w3.org/2000/svg" xmlns:xlink="http://www.w3.org/1999/xlink" xmlns:shaper="http://www.shapertools.com/namespaces/shaper" shaper:fusionaddin="version:1.6.10" width="10cm" height="10cm" version="1.1" x="0cm" y="0cm" viewBox="0 0 10 10" enable-background="new 0 0 10 10" xml:space="preserve"><path d="M32.774213,-6.3386841 L42.774213,-6.3386841 42.774213,-16.3386841 32.774213,-16.3386841 32.774213,-6.3386841z" transform="matrix(1,0,0,-1,-32.774213,-6.3386841)" fill="rgb(0,0,0)" stroke-linecap="round" stroke-linejoin="round" /><path d="M42.1169659,-14.1567689 A0.1,0.1 55 0,0 42.0022506,-14.3205993 L39.8797365,-12.8343989 37.7572224,-14.3205993 A0.1,0.1 305 1,0 37.6425071,-14.1567689 L39.5006645,-12.8556731 A0.175,0.175 305 0,1 39.5006645,-12.5689698 L33.2168553,-8.1689993 A0.1,0.1 235.0000012 1,0 33.3315706,-8.0051689 L39.8797365,-12.590244 42.0022506,-11.1040436 A0.1,0.1 124.9999988 0,0 42.1169659,-11.267874 L40.2588085,-12.5689698 A0.175,0.175 125 0,1 40.2588085,-12.8556731 L42.1169659,-14.1567689z" transform="matrix(1,0,0,-1,-32.774213,-6.3386841)" fill="rgb(255,255,255)" stroke="rgb(0,0,0)" stroke-width="0.0010cm" stroke-linecap="round" stroke-linejoin="round" /></svg>