<?xml version="1.0" encoding="utf-8"?>
<!-- Generator: Fusion 360, Shaper Origin Export Add-In, Version 1.6.10  -->
<svg xmlns="http://www.w3.org/2000/svg" xmlns:xlink="http://www.w3.org/1999/xlink" xmlns:shaper="http://www.shapertools.com/namespaces/shaper" shaper:fusionaddin="version:1.6.10" width="10cm" height="10cm" version="1.1" x="0cm" y="0cm" viewBox="0 0 10 10" enable-background="new 0 0 10 10" xml:space="preserve"><path d="M40.5121855,-6.3504342 L50.5121855,-6.3504342 50.5121855,-16.3504342 40.5121855,-16.3504342 40.5121855,-6.3504342z" transform="matrix(1,0,0,-1,-40.5121855,-6.3504342)" fill="rgb(0,0,0)" stroke-linecap="round" stroke-linejoin="round" /><path d="M40.9548278,-8.1807494 A0.1,0.1 234.9999988 0,0 41.0695431,-8.016919 L47.3425588,-12.4093318 A0.4,0.4 235 0,1 47.8014199,-12.4093318 L49.6953262,-11.0832044 A0.1,0.1 124.9999999 0,0 49.8100415,-11.2470348 L45.4037556,-14.3323494 A0.1,0.1 305 0,0 45.2890403,-14.168519 L47.2221641,-12.8149311 A0.15,0.15 305 0,1 47.2221641,-12.5691855 L40.9548278,-8.1807494z" transform="matrix(1,0,0,-1,-40.5121855,-6.3504342)" fill="rgb(255,255,255)" stroke="rgb(0,0,0)" stroke-width="0.0010cm" stroke-linecap="round" stroke-linejoin="round" /></svg>