<?xml version="1.0" encoding="utf-8"?>
<!-- Generator: Fusion 360, Shaper Origin Export Add-In, Version 1.6.10  -->
<svg xmlns="http://www.w3.org/2000/svg" xmlns:xlink="http://www.w3.org/1999/xlink" xmlns:shaper="http://www.shapertools.com/namespaces/shaper" shaper:fusionaddin="version:1.6.10" width="10cm" height="10cm" version="1.1" x="0cm" y="0cm" viewBox="0 0 10 10" enable-background="new 0 0 10 10" xml:space="preserve"><path d="M47.5827397,-6.174904 L57.5827397,-6.174904 57.5827397,-16.174904 47.5827397,-16.174904 47.5827397,-6.174904z" transform="matrix(1,0,0,-1,-47.5827397,-6.174904)" fill="rgb(0,0,0)" stroke-linecap="round" stroke-linejoin="round" /><path d="M54.6908384,-12.428267 L56.3130112,-11.2924094 A0.1,0.1 305 0,1 56.2556535,-11.1104942 L53.1260232,-11.1104942 A0.1,0.1 90 0,1 53.0686655,-11.2924094 L54.6908384,-12.428267z" transform="matrix(1,0,0,-1,-47.5827397,-6.174904)" fill="rgb(0,0,0)" stroke-linecap="round" stroke-linejoin="round" /><path d="M56.9473301,-11.0924094 L55.0699104,-12.4069929 A0.175,0.175 125 0,1 55.0699104,-12.6936961 L55.504674,-12.9981209 A0.1,0.1 54.9999988 0,0 55.3899587,-13.1619513 L54.6908384,-12.672422 53.0905031,-13.7929888 A0.1,0.1 125 0,1 53.1478607,-13.974904 L56.9016068,-13.974904 A0.1,0.1 90 0,0 56.9016068,-14.174904 L52.5135418,-14.174904 A0.1,0.1 270 0,0 52.4561841,-13.9929888 L54.3117664,-12.6936961 A0.175,0.175 305 0,1 54.3117664,-12.4069929 L48.025382,-8.0052192 A0.1,0.1 235 0,0 48.1400973,-7.8413888 L52.5232341,-10.9104942 56.8899725,-10.9104942 A0.1,0.1 90 0,0 56.9473301,-11.0924094z" transform="matrix(1,0,0,-1,-47.5827397,-6.174904)" fill="rgb(255,255,255)" stroke="rgb(0,0,0)" stroke-width="0.0010cm" stroke-linecap="round" stroke-linejoin="round" /></svg>