<svg width="756" height="756" xmlns="http://www.w3.org/2000/svg" xmlns:xlink="http://www.w3.org/1999/xlink" overflow="hidden"><defs><clipPath id="clip0"><rect x="0" y="0" width="756" height="756"/></clipPath></defs><g clip-path="url(#clip0)"><rect x="0" y="0" width="756" height="756" fill="#FFFFFF"/><path d="M393 481 482.5 419 572 481Z" stroke="#000000" stroke-width="16.0035" stroke-linecap="round" stroke-linejoin="round" stroke-miterlimit="10" fill="none" fill-rule="evenodd"/><path d="M393 481 484.276 544.19" stroke="#000000" stroke-width="16.0035" stroke-linecap="round" stroke-miterlimit="8" fill="none" fill-rule="evenodd"/><path d="M184 212 572.913 481.248" stroke="#000000" stroke-width="16.0035" stroke-linecap="round" stroke-miterlimit="8" fill="none" fill-rule="evenodd"/><path d="M432 474 417 473.189 431.274 464C428.29 467.333 426.516 471.207 432 474Z" fill-rule="evenodd"/><path d="M14.9999 8.99999 0 8.27024 14.2741 0C11.2903 2.99992 9.51615 6.48649 14.9999 8.99999Z" fill-rule="evenodd" transform="matrix(-1 0 0 1 549 465)"/><path d="M15.0001 8.99999 0 8.27024 14.2742 0C11.2904 2.99992 9.51622 6.48649 15.0001 8.99999Z" fill-rule="evenodd" transform="matrix(1 0 0 -1 417 497)"/></g></svg>