<svg width="756" height="756" xmlns="http://www.w3.org/2000/svg" xmlns:xlink="http://www.w3.org/1999/xlink" overflow="hidden"><defs><clipPath id="clip0"><rect x="0" y="0" width="756" height="756"/></clipPath></defs><g clip-path="url(#clip0)"><rect x="0" y="0" width="756" height="756" fill="#FFFFFF"/><path d="M394 357 483.094 295 572 356.962" stroke="#000000" stroke-width="16.0035" stroke-linecap="round" stroke-linejoin="round" stroke-miterlimit="10" fill="none" fill-rule="evenodd"/><path d="M184 212 572.913 481.248" stroke="#000000" stroke-width="16.0035" stroke-linecap="round" stroke-miterlimit="8" fill="none" fill-rule="evenodd"/><path d="M572 482 482.906 544 394 482.038" stroke="#000000" stroke-width="16.0035" stroke-linecap="round" stroke-linejoin="round" stroke-miterlimit="10" fill="none" fill-rule="evenodd"/><path d="M427.706 370.976C408.848 369.131 410.423 361.65 404.779 357.436 413.605 351.917 417.237 348.852 428.522 343.333 414.742 352.97 419.501 365.58 427.706 370.976Z" fill-rule="evenodd"/><path d="M3.18075 26.6029C-4.09551 9.10811 3.24307 6.96495 4.29349 0 13.3252 5.17518 17.742 6.92981 27.9343 14.2723 12.9336 6.67413 4.06397 16.8224 3.18075 26.6029Z" fill-rule="evenodd" transform="matrix(-0.472094 -0.881548 -0.881548 0.472094 563.889 485.408)"/><path d="M465.343 317.872C475.376 306.617 476.643 306.115 485.492 298.608 492.43 306.368 493.881 307.644 501.236 317.827 487.833 309.599 481.916 308.005 465.343 317.872Z" fill-rule="evenodd"/><path d="M0 24.6378C5.96939 10.792 7.0134 9.91568 13.0418 0 22.0734 5.17518 23.8529 5.92812 34.0453 13.2706 18.7311 9.69077 12.6135 10.0457 0 24.6378Z" fill-rule="evenodd" transform="matrix(0.948918 -0.315524 -0.315524 -0.948918 473.117 544.88)"/></g></svg>