<?xml version="1.0" encoding="utf-8"?>
<!-- Generator: Adobe Adobe Illustrator 24.2.0, SVG Export Plug-In . SVG Version: 6.00 Build 0)  -->
<svg version="1.1" xmlns="http://www.w3.org/2000/svg" xmlns:xlink="http://www.w3.org/1999/xlink" x="0px" y="0px"
	 width="8345.75px" height="3480px" viewBox="0 0 8345.75 3480" style="enable-background:new 0 0 8345.75 3480;"
	 xml:space="preserve">
<style type="text/css">
	.st0{fill:none;stroke:#000000;stroke-width:0;stroke-linecap:round;stroke-linejoin:round;}
	.st1{fill:none;stroke:#000000;stroke-width:30;stroke-linecap:round;stroke-miterlimit:10;}
	.st2{fill:none;stroke:#000000;stroke-width:18;stroke-linecap:round;stroke-miterlimit:10;}
	.st3{fill:none;stroke:#C9267B;stroke-width:30;stroke-linecap:round;stroke-miterlimit:10;}
	.st4{fill:none;stroke:#000000;stroke-width:20;stroke-linecap:round;stroke-miterlimit:10;}
	.st5{display:none;}
	.st6{display:inline;fill:#0A0A0A;}
	.st7{display:inline;fill:none;stroke:#000000;stroke-width:30;stroke-linecap:round;stroke-miterlimit:10;}
	.st8{fill:#0A0A0A;}
	.st9{fill:#0A0A0A;stroke:#000000;stroke-width:30;stroke-linecap:round;stroke-miterlimit:10;}
	.st10{fill:#030000;}
	.st11{stroke:#000000;stroke-width:20;stroke-miterlimit:10;}
	.st12{fill:#FFFFFF;stroke:#000000;stroke-miterlimit:10;}
	.st13{fill:#FFFFFF;stroke:#000000;stroke-width:20;stroke-linecap:round;stroke-miterlimit:10;}
	.st14{stroke:#000000;stroke-miterlimit:10;}
	.st15{display:none;fill:none;stroke:#000000;stroke-width:30;stroke-linecap:round;stroke-miterlimit:10;}
</style>
<g id="レイヤー_1">
</g>
<g id="レイヤー_5">
</g>
<g id="レイヤー_6">
</g>
<g id="レイヤー_3" class="st5">
</g>
<g id="レイヤー_2">
</g>
<g id="A">
	<g>
		<path class="st8" d="M1172.7,953.25c17.73,12.41,16.62,16.8,15.49,21.78c-1.18,5.24-7.62,11.23-24.13,11.23
			c7.97,11.88,50.12,1.17,64.9-1.38C1208.92,972.71,1196.2,965.95,1172.7,953.25z"/>
		<path d="M877.17,950.57c0.15,11.12-2.67,24.36-2.52,35.48c0.04,3.05,0.31,6.55,2.76,8.35c1.98,1.46,4.69,1.25,7.13,0.97
			c15.82-1.77,19.72-7.38,35.54-9.15C893.68,986.22,877.17,974.41,877.17,950.57z"/>
		<path d="M877.17,1051.58c0.15-11.12-2.67-24.36-2.52-35.48c0.04-3.05,0.31-6.55,2.76-8.35c1.98-1.46,4.69-1.25,7.13-0.97
			c15.82,1.77,19.72,7.38,35.54,9.15C893.68,1015.92,877.17,1027.74,877.17,1051.58z"/>
		<line class="st1" x1="862.02" y1="717.61" x2="862.23" y2="1145"/>
		<line class="st1" x1="862.02" y1="1001.07" x2="1262.02" y2="1001.07"/>
		<line class="st1" x1="247.76" y1="287.42" x2="1476.49" y2="1147.79"/>
		<path d="M877.2,802.59c-0.35-21.47-0.95-41.44-1.3-62.91c16.01,13.18,31.52,26.05,47.53,39.23c-10.85-7.6-27.59-12.1-34.29-7.35
			C882.57,776.21,877.25,787.29,877.2,802.59z"/>
	</g>
</g>
<g id="B">
	<g id="レイヤー_7">
		<line class="st1" x1="1781.44" y1="1149.61" x2="1781.39" y2="573.61"/>
		<line class="st1" x1="1374.23" y1="285.61" x2="1988.6" y2="715.79"/>
		<line class="st1" x1="1781.42" y1="861" x2="1986.2" y2="717.61"/>
		<line class="st1" x1="1781.42" y1="861.61" x2="2190.99" y2="1148.39"/>
		<line class="st1" x1="1781.42" y1="1149.61" x2="2190.42" y2="1149.61"/>
	</g>
	<path d="M1796.39,1099.11c0.15,11.12-2.67,24.36-2.52,35.48c0.04,3.05,0.31,6.55,2.76,8.35c1.98,1.46,4.69,1.25,7.13,0.97
		c15.82-1.77,19.72-7.38,35.54-9.15C1812.9,1134.76,1796.39,1122.95,1796.39,1099.11z"/>
	<path d="M1796.47,649.52c-0.28-21.47-0.77-41.44-1.06-62.91c12.98,13.18,25.55,26.05,38.53,39.23c-8.8-7.6-22.36-12.1-27.8-7.35
		C1800.83,623.14,1796.51,634.22,1796.47,649.52z"/>
	<path d="M1796.47,940.52c-0.28-21.47-0.77-41.44-1.06-62.91c12.98,13.18,25.55,26.05,38.53,39.23c-8.8-7.6-22.36-12.1-27.8-7.35
		C1800.83,914.14,1796.51,925.22,1796.47,940.52z"/>
	<path class="st14" d="M1930.78,693.03c20.26,4.1,36.95,14.31,48.05,21.97c-11.94,10.55-20.99,12.52-50.04,25.18
		C1948.76,726.19,1950.12,706.55,1930.78,693.03z"/>
	<path d="M1796.47,781.96c-0.28,21.47-0.77,41.44-1.06,62.91c12.98-13.18,25.55-26.05,38.53-39.23c-8.8,7.6-22.36,12.1-27.8,7.35
		C1800.83,808.34,1796.51,797.26,1796.47,781.96z"/>
	<path class="st8" d="M2098.43,1102.04c17.73,12.41,16.62,16.8,15.49,21.78c-1.18,5.24-7.62,11.23-24.13,11.23
		c7.97,11.88,50.12,1.17,64.9-1.38C2134.65,1121.5,2121.92,1114.74,2098.43,1102.04z"/>
</g>
<g id="C">
	<line class="st1" x1="2318.75" y1="930.89" x2="2625.93" y2="715.8"/>
	<line class="st1" x1="2625.93" y1="1144.14" x2="2856.73" y2="982.54"/>
	<line class="st1" x1="2318.75" y1="931.06" x2="2625.93" y2="1146.15"/>
	<path class="st14" d="M2376.77,908.14c-20.26,4.1-36.95,14.31-48.05,21.97c11.94,10.55,20.99,12.52,50.04,25.18
		C2358.79,941.3,2357.43,921.66,2376.77,908.14z"/>
	<line class="st1" x1="2012.08" y1="285.43" x2="2855.19" y2="875.78"/>
	<path d="M2586.13,761.81c26.93-18.83,50.75-20.47,80.01,0.01c-1.59-7.71-4.95-26.63-10.57-32.14c-6.04-5.92-22.22-8.97-26.22-10.16
		c-6.57-1.96-24.38,3.25-37.19,17.42C2585.72,744.05,2586.43,752.25,2586.13,761.81z"/>
	<path d="M2584.63,1098.62c26.93,18.83,50.75,20.47,80.01-0.01c-1.59,7.71-4.95,26.63-10.57,32.14
		c-6.04,5.92-22.22,8.97-26.22,10.16c-6.57,1.96-24.38-3.25-37.19-17.42C2584.22,1116.39,2584.93,1108.18,2584.63,1098.62z"/>
</g>
<g id="D">
	<line x1="3523.53" y1="799.25" x2="3578.19" y2="838.24"/>
	<path class="st0" d="M3530.84,809.9c-0.03,0.03-0.07,0.06-0.1,0.08"/>
	<path d="M3206.9,1038.41c-0.35,21.47-0.95,41.44-1.3,62.91c16.01-13.18,31.52-26.05,47.53-39.23c-10.85,7.6-27.59,12.1-34.29,7.35
		C3212.28,1064.79,3206.95,1053.7,3206.9,1038.41z"/>
	<path d="M3206.75,634.52c-0.35-21.47-0.95-41.44-1.3-62.91c16.01,13.18,31.52,26.05,47.53,39.23c-10.85-7.6-27.59-12.1-34.29-7.35
		C3212.12,608.14,3206.8,619.22,3206.75,634.52z"/>
	<line class="st1" x1="3192.15" y1="1120.24" x2="3192.09" y2="550.05"/>
	<line class="st1" x1="2782.53" y1="263.27" x2="3601.68" y2="836.84"/>
	<line class="st1" x1="3192.11" y1="1122.8" x2="3601.52" y2="836.12"/>
	<path class="st14" d="M3546.92,816.13c20.26,4.1,36.95,14.31,48.05,21.97c-11.94,10.55-20.99,12.52-50.04,25.18
		C3564.9,849.29,3566.26,829.65,3546.92,816.13z"/>
</g>
<g id="E">
	<line class="st1" x1="3845.68" y1="908.13" x2="4152.87" y2="693.04"/>
	<line class="st1" x1="4152.87" y1="1121.39" x2="4383.66" y2="959.78"/>
	<line class="st1" x1="3845.68" y1="908.3" x2="4152.87" y2="1123.39"/>
	<path class="st14" d="M3903.7,885.38c-20.26,4.1-36.95,14.31-48.05,21.97c11.94,10.55,20.99,12.52,50.04,25.18
		C3885.72,918.55,3884.36,898.91,3903.7,885.38z"/>
	<line class="st1" x1="3539.01" y1="262.67" x2="4382.12" y2="853.02"/>
	<path d="M4113.07,739.05c26.93-18.83,50.75-20.47,80.01,0.01c-1.59-7.71-4.95-26.63-10.57-32.14c-6.04-5.92-22.22-8.97-26.22-10.16
		c-6.57-1.96-24.38,3.25-37.19,17.42C4112.65,721.29,4113.37,729.5,4113.07,739.05z"/>
	<path d="M4111.57,1075.87c26.93,18.83,50.75,20.47,80.01-0.01c-1.59,7.71-4.95,26.63-10.57,32.14
		c-6.04,5.92-22.22,8.97-26.22,10.16c-6.57,1.96-24.38-3.25-37.19-17.42C4111.15,1093.63,4111.87,1085.42,4111.57,1075.87z"/>
	<line class="st1" x1="4255.65" y1="908.89" x2="3855.65" y2="909.03"/>
	<path d="M3957.69,968.09c-22.64-15.85-22.82-23.37-21.38-29.73c1.51-6.69,9.73-14.34,30.82-14.34
		c-10.17-15.18-64.01-1.49-82.88,1.76C3909.83,941.33,3927.68,951.87,3957.69,968.09z"/>
	<path d="M3955.19,850.01c-22.64,15.85-22.82,23.37-21.38,29.73c1.51,6.69,9.73,14.34,30.82,14.34
		c-10.17,15.18-64.01,1.49-82.88-1.76C3907.33,876.77,3925.18,866.23,3955.19,850.01z"/>
</g>
<g id="F">
	<line class="st1" x1="4327.7" y1="264.36" x2="5044.46" y2="766.24"/>
	<line class="st1" x1="4984.85" y1="840.31" x2="4734.85" y2="840.4"/>
	<line class="st1" x1="4734.91" y1="1128.36" x2="4734.85" y2="552.36"/>
	<path d="M4749.94,628.27c-0.28-21.47-0.77-41.44-1.06-62.91c12.98,13.18,25.55,26.05,38.53,39.23c-8.8-7.6-20.62-6.35-26.8-3.35
		C4754.26,604.33,4749.98,612.98,4749.94,628.27z"/>
	<path d="M4749.86,790.12c0.15,11.12-2.67,24.36-2.52,35.48c0.04,3.05,0.31,6.55,2.76,8.35c1.98,1.46,4.69,1.25,7.13,0.97
		c15.82-1.77,19.72-7.38,35.54-9.15C4766.37,825.77,4749.86,813.96,4749.86,790.12z"/>
	<path d="M4749.86,891.62c0.15-11.12-2.67-24.36-2.52-35.48c0.04-3.05,0.31-6.55,2.76-8.35c1.98-1.46,4.69-1.25,7.13-0.97
		c15.82,1.77,19.72,7.38,35.54,9.15C4766.37,855.96,4749.86,867.77,4749.86,891.62z"/>
</g>
<g id="G">
	<line class="st1" x1="5195.48" y1="896.53" x2="5502.66" y2="681.44"/>
	<line class="st1" x1="5502.86" y1="1111.79" x2="5810.04" y2="896.7"/>
	<line class="st1" x1="5195.48" y1="896.7" x2="5502.66" y2="1111.79"/>
	<path d="M5699.96,955.49c22.64-15.85,22.82-23.37,21.38-29.73c-1.51-6.69-9.73-14.34-30.82-14.34
		c10.17-15.18,64.01-1.49,82.88,1.76C5747.81,928.73,5729.96,939.27,5699.96,955.49z"/>
	<path class="st14" d="M5253.5,873.79c-20.26,4.1-36.95,14.31-48.05,21.97c11.94,10.55,20.99,12.52,50.04,25.18
		C5235.51,906.95,5234.16,887.31,5253.5,873.79z"/>
	<line class="st1" x1="4888.6" y1="251.04" x2="5707.76" y2="824.62"/>
	<path d="M5462.86,727.45c26.93-18.83,50.75-20.47,80.01,0.01c-1.59-7.71-4.95-26.63-10.57-32.14c-6.04-5.92-22.22-8.97-26.22-10.16
		c-6.57-1.96-24.38,3.25-37.19,17.42C5462.45,709.69,5463.16,717.9,5462.86,727.45z"/>
	<path d="M5462.36,1066.27c26.93,18.83,50.75,20.47,80.01-0.01c-1.59,7.71-4.95,26.63-10.57,32.14
		c-6.04,5.92-22.22,8.97-26.22,10.16c-6.57,1.96-24.38-3.25-37.19-17.42C5461.95,1084.03,5462.66,1075.82,5462.36,1066.27z"/>
	<line class="st1" x1="5810.04" y1="896.46" x2="5410.04" y2="896.6"/>
</g>
<g id="H">
	<line class="st1" x1="6227.88" y1="668.89" x2="6228.09" y2="1096.28"/>
	<line class="st1" x1="6227.88" y1="668.89" x2="6228.09" y2="1096.28"/>
	<line class="st1" x1="6842.25" y1="673.1" x2="6842.45" y2="1100.49"/>
	<line class="st1" x1="5613.71" y1="238.73" x2="6227.88" y2="668.89"/>
	<line class="st1" x1="6236.45" y1="881.51" x2="6842.45" y2="881.65"/>
	<path d="M6243.03,830.85c0.15,11.12-2.67,24.36-2.52,35.48c0.04,3.05,0.31,6.55,2.76,8.35c1.98,1.46,4.69,1.25,7.13,0.97
		c15.82-1.77,19.72-7.38,35.54-9.15C6259.54,866.5,6243.03,854.69,6243.03,830.85z"/>
	<path d="M6243.03,932.35c0.15-11.12-2.67-24.36-2.52-35.48c0.04-3.05,0.31-6.55,2.76-8.35c1.98-1.46,4.69-1.25,7.13-0.97
		c15.82,1.77,19.72,7.38,35.54,9.15C6259.54,896.7,6243.03,908.51,6243.03,932.35z"/>
	<path d="M6827.41,932.35c-0.15-11.12,2.67-24.36,2.52-35.48c-0.04-3.05-0.31-6.55-2.76-8.35c-1.98-1.46-4.69-1.25-7.13-0.97
		c-15.82,1.77-19.72,7.38-35.54,9.15C6810.91,896.7,6827.41,908.51,6827.41,932.35z"/>
	<path d="M6827.41,831.35c-0.15,11.12,2.67,24.36,2.52,35.48c-0.04,3.05-0.31,6.55-2.76,8.35c-1.98,1.46-4.69,1.25-7.13,0.97
		c-15.82-1.77-19.72-7.38-35.54-9.15C6810.91,867,6827.41,855.19,6827.41,831.35z"/>
	<path d="M6176.77,651.45c28.7,20.12,36.19,33.75,36.17,59.71c6.77-9.07,9.61-30.99,9.99-38.86
		C6223.49,660.71,6177.61,651.68,6176.77,651.45z"/>
</g>
<g id="I">
	<line class="st1" x1="6792.45" y1="241.1" x2="7199.6" y2="526.19"/>
	<path d="M7148.34,508.45c28.7,20.12,36.19,33.75,36.17,59.71c6.77-9.07,9.61-30.99,9.99-38.86
		C7195.06,517.71,7149.19,508.68,7148.34,508.45z"/>
	<line class="st1" x1="7199.66" y1="1105.1" x2="7199.6" y2="529.1"/>
</g>
<g id="J">
	<line class="st1" x1="7331.67" y1="233.87" x2="7946.03" y2="664.05"/>
	<line class="st1" x1="7945.91" y1="668.99" x2="7945.84" y2="954.86"/>
	<line class="st1" x1="7741.07" y1="1098.18" x2="7945.89" y2="954.83"/>
	<line class="st1" x1="7741.26" y1="1098.18" x2="7536.44" y2="954.83"/>
	<path d="M7895.22,644.64c28.7,20.12,36.19,33.75,36.17,59.71c6.77-9.07,9.61-30.99,9.99-38.86
		C7941.94,653.9,7896.07,644.87,7895.22,644.64z"/>
	<path d="M7931.59,902.76c-0.02,35.05-6.89,49-28.16,63.87c11.32,0.34,30.9-9.9,37.56-14.1
		C7950.8,946.34,7931.89,903.59,7931.59,902.76z"/>
	<path d="M7701.26,1051.5c26.93,18.83,50.75,20.47,80.01-0.01c-1.59,7.71-4.95,26.63-10.57,32.14c-6.04,5.92-22.22,8.97-26.22,10.16
		c-6.57,1.96-24.38-3.25-37.19-17.42C7700.84,1069.26,7701.56,1061.06,7701.26,1051.5z"/>
</g>
<g id="K3">
</g>
<g id="K">
	<line class="st1" x1="860.94" y1="2162.6" x2="860.89" y2="1586.6"/>
	<path class="st14" d="M919.16,1851.88c-20.26,4.1-36.95,14.31-48.05,21.97c11.94,10.55,20.99,12.52,50.04,25.18
		C901.18,1885.04,899.82,1865.4,919.16,1851.88z"/>
	<line class="st1" x1="453.73" y1="1298.15" x2="860.89" y2="1583.69"/>
	<line class="st1" x1="860.94" y1="1875.3" x2="1270.52" y2="1588.51"/>
	<line class="st1" x1="860.63" y1="1874.17" x2="1270.2" y2="2160.96"/>
	<path d="M875.97,1953.26c-0.28-21.47-0.77-41.44-1.06-62.91c12.98,13.18,25.55,26.05,38.53,39.23c-8.8-7.6-22.36-12.1-27.8-7.35
		C880.33,1926.88,876.01,1937.96,875.97,1953.26z"/>
	<path d="M875.97,1796.45c-0.28,21.47-0.77,41.44-1.06,62.91c12.98-13.18,25.55-26.05,38.53-39.23c-8.8,7.6-22.36,12.1-27.8,7.35
		C880.33,1822.83,876.01,1811.75,875.97,1796.45z"/>
	<path d="M809.94,1566.29c28.7,20.12,36.19,33.74,36.17,59.71c6.77-9.07,9.61-30.99,9.99-38.86
		C856.66,1575.55,810.78,1566.52,809.94,1566.29z"/>
</g>
<g id="L">
	<line class="st1" x1="1259.66" y1="1272.25" x2="1666.82" y2="1557.34"/>
	<path d="M1615.56,1539.6c28.7,20.12,36.19,33.74,36.17,59.71c6.77-9.07,9.61-30.99,9.99-38.86
		C1662.28,1548.86,1616.41,1539.84,1615.56,1539.6z"/>
	<line class="st1" x1="1666.87" y1="2136.25" x2="1666.82" y2="1560.25"/>
	<path d="M1681.69,2085.93c0.15,11.12-2.67,24.36-2.52,35.48c0.04,3.05,0.31,6.55,2.76,8.35c1.98,1.46,4.69,1.25,7.13,0.97
		c15.82-1.77,19.72-7.38,35.54-9.15C1698.2,2121.58,1681.69,2109.77,1681.69,2085.93z"/>
	<line class="st1" x1="1666.87" y1="2136.25" x2="2487.33" y2="2136.25"/>
</g>
<g id="M">
	<line class="st1" x1="2242.31" y1="1292.71" x2="3163.86" y2="1937.98"/>
	<line class="st1" x1="2856.68" y1="1725.68" x2="2856.89" y2="2153.07"/>
	<line class="st1" x1="3470.94" y1="1725.68" x2="3471.14" y2="2153.07"/>
	<path d="M2871.51,1818.64c-7.88-21.91-11.55-23.41-12.49-37.68c-0.72-11.03,7.35-27.04,11.42-37.32
		c22.87,16.85,58.35,29.17,63.66,51.49C2895.86,1768.33,2871.51,1780.33,2871.51,1818.64z"/>
	<path class="st8" d="M3123.85,1891.74c26.93,18.83,50.75,20.47,80.01-0.01c-1.59,7.71-4.95,26.63-10.57,32.14
		c-6.04,5.92-22.22,8.97-26.22,10.16c-6.57,1.96-24.38-3.25-37.19-17.42C3123.44,1909.5,3124.15,1901.29,3123.85,1891.74z"/>
	<path d="M2871.51,1818.64c-7.88-21.91-11.55-23.41-12.49-37.68c-0.72-11.03,7.35-27.04,11.42-37.32
		c22.87,16.85,58.35,29.17,63.66,51.49C2895.86,1768.33,2871.51,1780.33,2871.51,1818.64z"/>
	<path d="M3456.22,1820.86c7.88-21.91,11.55-23.41,12.49-37.68c0.72-11.03-7.35-27.04-11.42-37.32
		c-22.87,16.85-58.35,29.17-63.66,51.49C3431.87,1770.55,3456.22,1782.55,3456.22,1820.86z"/>
	<line class="st1" x1="3163.86" y1="1937.98" x2="3470.94" y2="1725.68"/>
</g>
<g id="N">
	<line class="st1" x1="3345.24" y1="1274.09" x2="4573.97" y2="2134.46"/>
	<line class="st1" x1="3959.61" y1="1707.06" x2="3959.81" y2="2134.46"/>
	<line class="st1" x1="4573.86" y1="1707.06" x2="4574.07" y2="2134.46"/>
	<path d="M3974.52,1821.64c-10.37-28.84-15.21-30.82-16.44-49.6c-0.95-14.52,9.68-35.59,15.03-49.13
		c30.1,22.17,76.81,38.4,83.79,67.77C4006.57,1755.41,3974.52,1771.22,3974.52,1821.64z"/>
	<path d="M4559.4,2017.91c10.37,28.84,15.21,30.82,16.44,49.6c0.95,14.52-9.68,35.59-15.03,49.13
		c-30.1-22.17-76.81-38.4-83.79-67.77C4527.35,2084.14,4559.4,2068.34,4559.4,2017.91z"/>
</g>
<g id="O">
	<line class="st1" x1="4852.1" y1="1919.39" x2="5159.28" y2="1704.3"/>
	<line class="st1" x1="5159.49" y1="2134.65" x2="5466.67" y2="1919.56"/>
	<line class="st1" x1="4852.1" y1="1919.56" x2="5159.28" y2="2134.65"/>
	<path class="st14" d="M4910.12,1896.64c-20.26,4.1-36.95,14.31-48.05,21.97c11.94,10.55,20.99,12.52,50.04,25.18
		C4892.14,1929.8,4890.78,1910.16,4910.12,1896.64z"/>
	<path class="st14" d="M5408.98,1896.67c20.26,4.1,36.95,14.31,48.05,21.97c-11.94,10.55-20.99,12.52-50.04,25.18
		C5426.96,1929.84,5428.32,1910.2,5408.98,1896.67z"/>
	<line class="st1" x1="4545.23" y1="1273.9" x2="5466.67" y2="1919.56"/>
	<path d="M5119.48,1750.31c26.93-18.83,50.75-20.47,80.01,0.01c-1.59-7.71-4.95-26.63-10.57-32.14
		c-6.04-5.92-22.22-8.97-26.22-10.16c-6.57-1.96-24.38,3.25-37.19,17.42C5119.07,1732.55,5119.78,1740.75,5119.48,1750.31z"/>
	<path d="M5118.98,2089.13c26.93,18.83,50.75,20.47,80.01-0.01c-1.59,7.71-4.95,26.63-10.57,32.14
		c-6.04,5.92-22.22,8.97-26.22,10.16c-6.57,1.96-24.38-3.25-37.19-17.42C5118.57,2106.89,5119.28,2098.68,5118.98,2089.13z"/>
</g>
<g id="P">
	<line class="st1" x1="5451.43" y1="1290.91" x2="6168.19" y2="1792.79"/>
	<line class="st1" x1="5858.64" y1="2154.91" x2="5858.58" y2="1578.91"/>
	<path d="M5873.67,1654.83c-0.29-21.47-0.77-41.44-1.06-62.91c12.98,13.18,25.55,26.05,38.53,39.23c-8.8-7.6-20.62-6.35-26.8-3.35
		C5877.99,1630.89,5873.71,1639.53,5873.67,1654.83z"/>
	<path d="M5873.67,1930.51c-0.29,21.47-0.77,41.44-1.06,62.91c12.98-13.18,25.55-26.05,38.53-39.23c-8.8,7.6-20.62,6.35-26.8,3.35
		C5877.99,1954.45,5873.71,1945.81,5873.67,1930.51z"/>
	<line class="st1" x1="5858.58" y1="2009.24" x2="6167.75" y2="1792.79"/>
	<path class="st14" d="M6110.56,1770.22c20.26,4.1,36.2,13.31,47.3,20.97c-11.94,10.55-21.24,13.27-50.29,25.93
		C6127.55,1803.13,6129.9,1783.74,6110.56,1770.22z"/>
</g>
<g id="Q">
	<line class="st1" x1="6438.68" y1="1912" x2="6745.87" y2="1696.91"/>
	<line class="st1" x1="6746.07" y1="2127.26" x2="7053.25" y2="1912.17"/>
	<line class="st1" x1="6438.68" y1="1912.17" x2="6745.87" y2="2127.26"/>
	<path class="st14" d="M6496.7,1889.26c-20.26,4.1-36.95,14.31-48.05,21.97c11.94,10.55,20.99,12.52,50.04,25.18
		C6478.72,1922.42,6477.36,1902.78,6496.7,1889.26z"/>
	<path class="st14" d="M6969.56,1988.4c-20.26,4.1-36.95,14.31-48.05,21.97c11.94,10.55,20.99,12.52,50.04,25.18
		C6951.58,2021.56,6950.22,2001.92,6969.56,1988.4z"/>
	<path class="st14" d="M6995.56,1889.29c20.26,4.1,36.95,14.31,48.05,21.97c-11.94,10.55-20.99,12.52-50.04,25.18
		C7013.54,1922.45,7014.9,1902.81,6995.56,1889.29z"/>
	<line class="st1" x1="6131.81" y1="1266.51" x2="7053.25" y2="1912.17"/>
	<path d="M6706.07,1742.92c26.93-18.83,50.75-20.47,80.01,0.01c-1.59-7.71-4.95-26.63-10.57-32.14
		c-6.04-5.92-22.22-8.97-26.22-10.16c-6.57-1.96-24.38,3.25-37.19,17.42C6705.65,1725.16,6706.37,1733.37,6706.07,1742.92z"/>
	<path d="M6705.57,2081.74c26.93,18.83,50.75,20.47,80.01-0.01c-1.59,7.71-4.95,26.63-10.57,32.14
		c-6.04,5.92-22.22,8.97-26.22,10.16c-6.57,1.96-24.38-3.25-37.19-17.42C6705.15,2099.5,6705.87,2091.29,6705.57,2081.74z"/>
	<path d="M6872.24,2056.89c26.93-18.83,50.75-20.47,80.01,0.01c-1.59-7.71-4.95-26.63-10.57-32.14
		c-6.04-5.92-22.22-8.97-26.22-10.16c-6.57-1.96-24.38,3.25-37.19,17.42C6871.83,2039.13,6872.54,2047.34,6872.24,2056.89z"/>
	<line class="st1" x1="6922.81" y1="2018.95" x2="7077.55" y2="2127.26"/>
</g>
<g id="R">
	<line class="st1" x1="7123.41" y1="1288.34" x2="7840.16" y2="1790.22"/>
	<line class="st1" x1="7530.62" y1="2152.34" x2="7530.56" y2="1576.34"/>
	<path d="M7545.64,1652.26c-0.29-21.47-0.77-41.44-1.06-62.91c12.98,13.18,25.55,26.05,38.53,39.23c-8.8-7.6-20.62-6.35-26.8-3.35
		C7549.96,1628.32,7545.68,1636.96,7545.64,1652.26z"/>
	<path d="M7592.72,1981.46c26.93-18.83,50.75-20.47,80.01,0.01c-1.59-7.71-4.95-26.63-10.57-32.14
		c-6.04-5.92-22.22-8.97-26.22-10.16c-6.57-1.96-24.38,3.25-37.19,17.42C7592.31,1963.7,7593.02,1971.9,7592.72,1981.46z"/>
	<path d="M7545.64,1927.94c-0.29,21.47-0.77,41.44-1.06,62.91c12.98-13.18,25.55-26.05,38.53-39.23c-8.8,7.6-20.62,6.35-26.8,3.35
		C7549.96,1951.88,7545.68,1943.24,7545.64,1927.94z"/>
	<line class="st1" x1="7530.56" y1="2006.67" x2="7839.73" y2="1790.22"/>
	<path class="st14" d="M7690.01,1912.37c-20.26,4.1-36.95,14.31-48.05,21.97c11.94,10.55,20.99,12.52,50.04,25.18
		C7672.03,1945.53,7670.67,1925.89,7690.01,1912.37z"/>
	<path class="st14" d="M7782.54,1767.65c20.26,4.1,36.2,13.31,47.3,20.97c-11.94,10.55-21.24,13.27-50.29,25.93
		C7799.52,1800.56,7801.88,1781.17,7782.54,1767.65z"/>
	<line class="st1" x1="7644.11" y1="1943.51" x2="7945.92" y2="2154.82"/>
</g>
<g id="S">
	<line class="st9" x1="1018.37" y1="3143.46" x2="1223.15" y2="3000.06"/>
	<line class="st9" x1="813.58" y1="2712.11" x2="1018.37" y2="2568.71"/>
	<line class="st9" x1="1223.15" y1="2712.11" x2="1018.37" y2="2568.71"/>
	<line class="st9" x1="1018.37" y1="3143.46" x2="813.58" y2="3000.06"/>
	<line class="st9" x1="199.21" y1="2281.92" x2="1223.15" y2="2998.9"/>
	<path d="M978.36,3097.51c26.93,18.83,50.75,20.47,80.01-0.01c-1.59,7.71-4.95,26.63-10.57,32.14c-6.04,5.92-22.22,8.97-26.22,10.16
		c-6.57,1.96-24.38-3.25-37.19-17.42C977.95,3115.27,978.66,3107.07,978.36,3097.51z"/>
	<path d="M978.36,2614.54c26.93-18.83,50.75-20.47,80.01,0.01c-1.59-7.71-4.95-26.63-10.57-32.14c-6.04-5.92-22.22-8.97-26.22-10.16
		c-6.57-1.96-24.38,3.25-37.19,17.42C977.95,2596.78,978.66,2604.99,978.36,2614.54z"/>
	<path class="st14" d="M1166.8,2977.11c20.26,4.1,36.2,13.31,47.3,20.97c-11.94,10.55-21.24,13.27-50.29,25.93
		C1183.78,3010.02,1186.14,2990.63,1166.8,2977.11z"/>
	<path class="st14" d="M870.83,2689.78c-20.26,4.1-36.2,13.31-47.3,20.97c11.94,10.55,21.24,13.27,50.29,25.93
		C853.85,2722.69,851.49,2703.3,870.83,2689.78z"/>
</g>
<g id="T">
	<line class="st1" x1="1271.36" y1="2283.42" x2="1885.73" y2="2713.61"/>
	<line class="st1" x1="1879.06" y1="2710.61" x2="2229.06" y2="2710.61"/>
	<path d="M1896.1,2761.3c0.15-11.12-2.67-24.36-2.52-35.48c0.04-3.05,0.31-6.55,2.76-8.35c1.98-1.46,4.69-1.25,7.13-0.97
		c15.82,1.77,19.72,7.38,35.54,9.15C1912.61,2725.65,1896.1,2737.46,1896.1,2761.3z"/>
	<path d="M1831,2692.88c28.7,20.12,36.19,33.75,36.17,59.71c6.77-9.07,9.61-30.99,9.99-38.86
		C1877.72,2702.14,1831.85,2693.12,1831,2692.88z"/>
	<line class="st1" x1="1881.44" y1="3140.79" x2="1881.45" y2="2710.61"/>
</g>
<g id="U">
	<line class="st1" x1="2434.15" y1="2290.58" x2="3048.51" y2="2720.76"/>
	<line class="st1" x1="3048.39" y1="2725.7" x2="3048.32" y2="3011.57"/>
	<line class="st1" x1="2638.96" y1="2723.22" x2="2638.89" y2="3009.09"/>
	<line class="st1" x1="2843.55" y1="3154.89" x2="3048.37" y2="3011.54"/>
	<line class="st1" x1="2843.74" y1="3154.89" x2="2638.92" y2="3011.54"/>
	<path d="M2997.7,2701.35c28.7,20.12,36.19,33.75,36.17,59.71c6.77-9.07,9.61-30.99,9.99-38.86
		C3044.42,2710.61,2998.55,2701.58,2997.7,2701.35z"/>
	<path d="M3034.07,2959.47c-0.02,35.05-6.89,49-28.16,63.87c11.32,0.34,30.9-9.9,37.56-14.1
		C3053.28,3003.05,3034.37,2960.3,3034.07,2959.47z"/>
	<path d="M2653.8,2960.18c0.02,35.05,6.89,49,28.16,63.87c-11.32,0.34-30.9-9.9-37.56-14.1
		C2634.59,3003.76,2653.51,2961.01,2653.8,2960.18z"/>
	<path d="M2803.73,3108.21c26.93,18.83,50.75,20.47,80.01-0.01c-1.59,7.71-4.95,26.63-10.57,32.14
		c-6.04,5.92-22.22,8.97-26.22,10.16c-6.57,1.96-24.38-3.25-37.19-17.42C2803.32,3125.97,2804.04,3117.77,2803.73,3108.21z"/>
</g>
<g id="V">
	<line class="st1" x1="3231.81" y1="2290.63" x2="4050.96" y2="2864.2"/>
	<line class="st1" x1="3641.39" y1="3150.9" x2="4051.02" y2="2864.2"/>
	<line class="st1" x1="3636.8" y1="3150.9" x2="3227.16" y2="2864.2"/>
	<path class="st14" d="M3992.98,2841.55c20.26,4.1,36.95,14.31,48.05,21.97c-11.94,10.55-20.99,12.52-50.04,25.18
		C4010.96,2874.72,4012.32,2855.08,3992.98,2841.55z"/>
	<path d="M3599.39,3106.18c26.93,18.83,50.75,20.47,80.01-0.01c-1.59,7.71-4.95,26.63-10.57,32.14
		c-6.04,5.92-22.22,8.97-26.22,10.16c-6.57,1.96-24.38-3.25-37.19-17.42C3598.98,3123.94,3599.69,3115.73,3599.39,3106.18z"/>
</g>
<g id="W">
	<line class="st1" x1="3768.33" y1="2279.72" x2="4382.7" y2="2712.69"/>
	<line class="st1" x1="4382.7" y1="2712.69" x2="4382.91" y2="3140.09"/>
	<line class="st1" x1="4996.96" y1="2712.69" x2="4997.16" y2="3140.09"/>
	<path d="M4982.5,3023.55c10.37,28.84,15.21,30.82,16.44,49.6c0.95,14.52-9.68,35.59-15.03,49.13
		c-30.1-22.17-76.81-38.4-83.79-67.77C4950.44,3089.77,4982.5,3073.97,4982.5,3023.55z"/>
	<path d="M4394.52,3026.68c-10.37,28.84-15.21,30.82-16.44,49.6c-0.95,14.52,9.68,35.59,15.03,49.13
		c30.1-22.17,76.81-38.4,83.79-67.77C4426.58,3092.91,4394.52,3077.11,4394.52,3026.68z"/>
	<line class="st1" x1="4382.91" y1="3141.49" x2="4691.87" y2="2926.39"/>
	<line class="st1" x1="4997.16" y1="3140.09" x2="4691.87" y2="2926.39"/>
	<path d="M4651.86,2972.51c26.93-18.83,50.75-20.47,80.01,0.01c-1.59-7.71-4.95-26.63-10.57-32.14
		c-6.04-5.92-22.22-8.97-26.22-10.16c-6.57-1.96-24.38,3.25-37.19,17.42C4651.45,2954.75,4652.17,2962.96,4651.86,2972.51z"/>
	<path d="M4331.8,2694.64c28.7,20.12,36.19,33.75,36.17,59.71c6.77-9.07,9.61-30.99,9.99-38.86
		C4378.51,2703.9,4332.64,2694.88,4331.8,2694.64z"/>
</g>
<g id="X">
	<line class="st1" x1="4795.68" y1="2292.85" x2="6024.41" y2="3153.21"/>
	<line class="st1" x1="5409.94" y1="3156.15" x2="6024.31" y2="2725.96"/>
	<path class="st14" d="M5662.49,2917.23c20.26,4.1,36.45,14.56,47.55,22.22c-11.94,10.55-22.49,12.52-51.54,25.18
		C5678.47,2950.64,5681.83,2930.75,5662.49,2917.23z"/>
	<path d="M5779.68,2963.75c-20.26-4.1-36.45-18.06-47.55-25.72c11.94-10.55,23.99-13.52,53.04-26.18
		C5765.2,2925.84,5760.34,2950.23,5779.68,2963.75z"/>
</g>
<g id="Y">
	<line class="st1" x1="5872.59" y1="2291.09" x2="6794.14" y2="2936.36"/>
	<line class="st1" x1="6486.85" y1="3154.39" x2="7101.22" y2="2724.2"/>
	<path class="st14" d="M6739.4,2915.47c20.26,4.1,36.45,14.56,47.55,22.22c-11.94,10.55-22.49,12.52-51.54,25.18
		C6755.38,2948.88,6758.74,2928.99,6739.4,2915.47z"/>
	<path d="M6756.72,2891.67c26.93,18.83,50.75,20.47,80.01-0.01c-1.59,7.71-4.95,26.63-10.57,32.14
		c-6.04,5.92-22.22,8.97-26.22,10.16c-6.57,1.96-24.38-3.25-37.19-17.42C6756.31,2909.43,6757.02,2901.22,6756.72,2891.67z"/>
</g>
<g id="Z">
	<line class="st1" x1="6874.71" y1="2272.9" x2="7898.65" y2="2989.87"/>
	<path class="st14" d="M7738,2894.94c20.26,4.1,36.45,14.56,47.55,22.22c-11.94,10.55-22.49,12.52-51.54,25.18
		C7753.98,2928.35,7757.34,2908.46,7738,2894.94z"/>
	<path d="M7852.55,2895.44c-20.26,4.1-36.95,14.31-48.05,21.97c11.94,10.55,23.49,12.52,52.54,25.18
		C7837.07,2928.6,7833.21,2908.96,7852.55,2895.44z"/>
	<path d="M7579.92,3085.71c-20.26,4.1-47.7,21.56-58.8,29.22c11.94,10.55,34.02,10.97,64.54-0.07
		C7559.71,3114.86,7560.58,3099.23,7579.92,3085.71z"/>
	<path d="M8014.84,2746.35c20.26-4.1,47.7-21.56,58.8-29.22c-11.94-10.55-34.02-10.97-64.54,0.07
		C8035.05,2717.2,8034.18,2732.83,8014.84,2746.35z"/>
	<path d="M7576.02,2746.52c-20.26-4.1-47.7-21.56-58.8-29.22c11.94-10.55,34.02-10.97,64.54,0.07
		C7555.81,2717.37,7556.68,2732.99,7576.02,2746.52z"/>
	<line class="st1" x1="7490.46" y1="3129.79" x2="8104.52" y2="2702.4"/>
	<line class="st1" x1="7490.46" y1="3129.79" x2="8104.62" y2="3129.79"/>
	<line class="st1" x1="8104.52" y1="2702.4" x2="7490.26" y2="2702.4"/>
</g>
<g id="レイヤー_4">
</g>
</svg>
