<svg xmlns="http://www.w3.org/2000/svg" version="1.1" xmlns:xlink="http://www.w3.org/1999/xlink" xmlns:svgjs="http://svgjs.com/svgjs" width="756" height="756"><svg width="756" height="756" xmlns="http://www.w3.org/2000/svg" xmlns:xlink="http://www.w3.org/1999/xlink" overflow="hidden"><defs><clipPath id="SvgjsClipPath1000"><rect x="0" y="0" width="756" height="756"></rect></clipPath></defs><g clip-path="url(#clip0)"><rect x="0" y="0" width="756" height="756" fill="#FFFFFF"></rect><path d="M387 301 627 467.5 387 634Z" stroke="#000000" stroke-width="16.0035" stroke-linecap="round" stroke-linejoin="round" stroke-miterlimit="10" fill="none" fill-rule="evenodd"></path><path d="M129 122 627.541 467.144" stroke="#000000" stroke-width="16.0035" stroke-linecap="round" stroke-miterlimit="8" fill="none" fill-rule="evenodd"></path><path d="M395.97 336.451C395.437 329.686 394.538 322.922 394.005 316.157 399.69 319.609 404.763 322.931 410.72 327.195 402.698 324.769 397.065 323.188 395.97 336.451Z" fill-rule="evenodd"></path><path d="M0 28.5328C2.70633 11.8855 1.88722 6.96497 2.93764 0L30.0324 15.5253C19.7939 11.7739 5.69757 9.50409 0 28.5328Z" fill-rule="evenodd" transform="matrix(-0.472094 -0.881548 -0.881548 0.472094 617.472 470.162)"></path><path d="M0.957078 20.3666C0.759867 13.5837 0.197211 6.78288 0 0 5.5073 3.72931 10.4091 7.29886 16.147 11.8534 8.25595 9.03196 2.70787 7.17371 0.957078 20.3666Z" fill-rule="evenodd" transform="matrix(0.99877 0.0495869 0.0495869 -0.99877 411.911 625.452)"></path><path d="M0.332105 20.6415C0.134894 13.8586 0.197211 6.78288 0 0 5.5073 3.72931 10.4091 7.29886 16.147 11.8534 8.25595 9.03196 2.0829 7.44863 0.332105 20.6415Z" fill-rule="evenodd" transform="matrix(0.99877 0.0495869 0.0495869 -0.99877 394.005 618.874)"></path></g></svg><style>@media (prefers-color-scheme: light) { :root { filter: none; } }
@media (prefers-color-scheme: dark) { :root { filter: none; } }
</style></svg>